<svg width="24" height="24" viewBox="0 0 24 24" fill="none" xmlns="http://www.w3.org/2000/svg">
<g clip-path="url(#clip0_939_11214)">
<path d="M17.6719 0C18.5731 0.210625 19.1281 0.834375 19.2087 1.76063L19.215 11.3687C18.8525 11.3719 18.4875 11.4138 18.1306 11.4769C17.6669 11.5588 17.2381 11.7269 16.7838 11.8363V5.7775C16.7838 5.62438 16.3306 5.33 16.1544 5.37813L2.86 5.41125C2.59687 5.5 2.43562 5.7325 2.42937 6.00938L2.43125 16.7712C2.46563 17.0894 2.64563 17.31 2.96813 17.3569L13.1875 17.3762C13.2731 17.4362 13.2175 17.8094 13.2319 17.94C13.5525 20.8375 15.7775 23.0988 18.7006 23.3444C18.7569 23.3906 18.4313 23.6369 18.3894 23.6637C18.2519 23.7525 17.7944 23.9519 17.6488 23.9519H5.42312V20.0456C5.42312 19.4963 4.4975 18.5719 3.95062 18.5719H0.046875V1.52062C0.046875 1.47875 0.193125 1.06625 0.225625 0.9975C0.4775 0.465625 0.995625 0.151875 1.5425 0H17.6712H17.6719ZM5.01813 2.83812C5.07625 2.89437 5.17125 2.9275 5.24438 2.9625L13.8625 2.995C14.6619 2.8275 14.5475 1.78188 13.7206 1.77813H5.49375C4.9325 1.76563 4.6075 2.44 5.01813 2.8375V2.83812ZM7.4025 3.75875C7.09188 4.06937 7.23187 4.69812 7.69375 4.76937H11.5681C12.1762 4.60062 12.1494 3.69625 11.52 3.60687C10.3863 3.44562 8.9075 3.71937 7.73625 3.60125C7.62937 3.60875 7.475 3.68625 7.4025 3.75875ZM9.4775 18.5837C8.88437 18.7781 8.87688 19.4863 9.43 19.7325L12.1756 19.7394C12.7562 19.5487 12.7662 18.7656 12.1675 18.5831H9.4775V18.5837ZM9.52437 20.3619C8.85562 20.5194 8.8575 21.4 9.52437 21.5562C10.6881 21.4806 12.0687 21.695 13.2069 21.5675C13.9756 21.4812 14.0162 20.5237 13.2887 20.3625H9.52375L9.52437 20.3619Z" fill="currentColor"/>
<path d="M23.9832 16.8888C24.0063 17.1375 24.0051 17.575 23.9832 17.8244C23.6951 21.0894 20.1382 23.0825 17.1732 21.7157C13.6351 20.085 13.4744 15.0475 16.8763 13.1688C19.8476 11.5282 23.6694 13.4913 23.9832 16.8888ZM19.7757 14.9707V14.1988C19.7757 14.0282 19.4732 13.81 19.2988 13.7832C18.5369 13.6669 18.5751 14.4932 18.6019 15.0132C16.9319 15.3288 17.0544 17.7775 18.7294 17.9594C18.9882 17.9875 19.3188 17.9232 19.5551 17.975C19.8544 18.0413 19.8657 18.4682 19.5907 18.5519C19.0419 18.7188 17.2019 18.1769 17.4107 19.2769C17.5326 19.9182 18.1482 19.6713 18.5863 19.7869C18.5626 20.3132 18.6157 21.1175 19.3582 20.9394C19.9051 20.8082 19.7444 20.1969 19.7963 19.7875C21.6151 19.4838 21.5882 16.9194 19.7051 16.75C19.4451 16.7269 18.9976 16.8019 18.7807 16.7394C18.5451 16.6719 18.5438 16.2657 18.7807 16.1975C19.3088 16.0457 21.2144 16.5725 20.9813 15.4269C20.9507 15.2769 20.6882 14.9713 20.5476 14.9713H19.7763L19.7757 14.9707Z" fill="currentColor"/>
<path d="M14.3994 13.7544C13.89 14.4975 13.5056 15.2969 13.3244 16.1869H3.64624V13.7544H14.3987H14.3994Z" fill="currentColor"/>
<path d="M12.6225 11.3682H3.64624V12.5844H12.6225V11.3682Z" fill="currentColor"/>
<path d="M12.6225 8.98254V10.1288L12.5525 10.1988H3.64624V8.98254H12.6225Z" fill="currentColor"/>
<path d="M12.6225 6.59619H3.64624V7.76557H12.6225V6.59619Z" fill="currentColor"/>
<path d="M4.25427 23.8594C3.99927 23.8444 3.74489 23.6669 3.55239 23.5094C2.48489 22.6332 1.52864 21.3363 0.466143 20.4219C0.304268 20.2307 0.157393 20.0001 0.139893 19.7426H3.66927C3.91552 19.7426 4.25364 20.0807 4.25364 20.3276V23.8594H4.25427Z" fill="currentColor"/>
<path d="M15.615 8.98254V10.1288L15.5444 10.1988H13.8619L13.7913 10.1288V8.98254H15.615Z" fill="currentColor"/>
<path d="M15.615 11.3682V12.585H13.8619L13.7913 12.5144V11.4388L13.8619 11.3682H15.615Z" fill="currentColor"/>
<path d="M15.6144 6.59619H13.7913V7.76557H15.6144V6.59619Z" fill="currentColor"/>
</g>
<defs>
<clipPath id="clip0_939_11214">
<rect width="24" height="24" fill="white"/>
</clipPath>
</defs>
</svg>
