<svg width="24" height="24" viewBox="0 0 24 24" fill="none" xmlns="http://www.w3.org/2000/svg">
<g clip-path="url(#clip0_675_19924)">
<path d="M23.28 19.92L19.92 16.56C21 14.88 21.6 12.96 21.6 10.8C21.6 4.8 16.8 0 10.8 0C4.8 0 0 4.8 0 10.8C0 16.8 4.8 21.6 10.8 21.6C12.96 21.6 14.88 21 16.56 19.92L19.92 23.28C20.88 24.24 22.32 24.24 23.28 23.28C24.24 22.32 24.24 20.88 23.28 19.92ZM10.8 19.2C6.12 19.2 2.4 15.48 2.4 10.8C2.4 6.12 6.12 2.4 10.8 2.4C15.48 2.4 19.2 6.12 19.2 10.8C19.2 15.48 15.48 19.2 10.8 19.2Z" fill="#575657"/>
<path d="M14.4 7.19995H7.2C6.48 7.19995 6 7.79995 6 8.39995C6 9.11995 6.48 9.59995 7.2 9.59995H14.4C15.12 9.59995 15.6 9.11995 15.6 8.39995C15.6 7.79995 15.12 7.19995 14.4 7.19995Z" fill="#575657"/>
<path d="M10.8 12H7.2C6.48 12 6 12.48 6 13.2C6 13.92 6.48 14.4 7.2 14.4H10.8C11.52 14.4 12 13.92 12 13.2C12 12.6 11.52 12 10.8 12Z" fill="#575657"/>
</g>
<defs>
<clipPath id="clip0_675_19924">
<rect width="24" height="24" fill="white"/>
</clipPath>
</defs>
</svg>
