<svg width="24" height="24" viewBox="0 0 24 24" fill="none" xmlns="http://www.w3.org/2000/svg">
<path d="M7.5 19.5C8.325 19.5 9 20.175 9 21C9 21.825 8.325 22.5 7.5 22.5C6.675 22.5 6 21.825 6 21C6 20.175 6.675 19.5 7.5 19.5ZM4.5 21C4.5 22.65 5.85 24 7.5 24C9.15 24 10.5 22.65 10.5 21C10.5 19.35 9.15 18 7.5 18C5.85 18 4.5 19.35 4.5 21ZM6 16.5C5.175 16.5 4.5 15.825 4.5 15C4.5 15 21.75 13.5 21.75 13.575C22.125 12.15 24 3.9 24 3.75C24.075 3.375 23.7 3 23.25 3H4.5V1.5H5.25C5.7 1.5 6 1.2 6 0.75C6 0.3 5.7 0 5.25 0H0.75C0.3 0 0 0.3 0 0.75C0 1.2 0.3 1.5 0.75 1.5H3V15C3 16.65 4.35 18 6 18H23.25C23.25 18 23.25 17.25 23.25 16.5H6ZM16.5 19.5C17.325 19.5 18 20.175 18 21C18 21.825 17.325 22.5 16.5 22.5C15.675 22.5 15 21.825 15 21C15 20.175 15.675 19.5 16.5 19.5ZM13.5 21C13.5 22.65 14.85 24 16.5 24C18.15 24 19.5 22.65 19.5 21C19.5 19.35 18.15 18 16.5 18C14.85 18 13.5 19.35 13.5 21Z" fill="#BF1823"/>
</svg>
