<svg width="32" height="32" viewBox="0 0 32 32" fill="none" xmlns="http://www.w3.org/2000/svg">
<path d="M10 26C11.1 26 12 26.9 12 28C12 29.1 11.1 30 10 30C8.9 30 8 29.1 8 28C8 26.9 8.9 26 10 26ZM6 28C6 30.2 7.8 32 10 32C12.2 32 14 30.2 14 28C14 25.8 12.2 24 10 24C7.8 24 6 25.8 6 28ZM8 22C6.9 22 6 21.1 6 20C6 20 29 18 29 18.1C29.5 16.2 32 5.2 32 5C32.1 4.5 31.6 4 31 4H6V2H7C7.6 2 8 1.6 8 1C8 0.4 7.6 0 7 0H1C0.4 0 0 0.4 0 1C0 1.6 0.4 2 1 2H4V20C4 22.2 5.8 24 8 24H31C31 24 31 23 31 22H8ZM22 26C23.1 26 24 26.9 24 28C24 29.1 23.1 30 22 30C20.9 30 20 29.1 20 28C20 26.9 20.9 26 22 26ZM18 28C18 30.2 19.8 32 22 32C24.2 32 26 30.2 26 28C26 25.8 24.2 24 22 24C19.8 24 18 25.8 18 28Z" fill="#575657"/>
</svg>
