<svg width="24" height="24" viewBox="0 0 24 24" fill="none" xmlns="http://www.w3.org/2000/svg">
<path d="M8.61514 0.665864C9.61401 0.364896 10.5689 1.13682 10.5689 2.1404V2.50116H16.6089C17.4483 2.50116 18.1289 3.18161 18.1289 4.02098V7.63053C18.1289 8.05024 17.7886 8.39045 17.3689 8.39045C16.9491 8.39045 16.6089 8.05024 16.6089 7.63053V4.02098H10.5689V19.979H16.6089V16.3695C16.6089 15.9498 16.9491 15.6095 17.3689 15.6095C17.7886 15.6095 18.1289 15.9498 18.1289 16.3695V19.979C18.1289 20.8184 17.4483 21.4988 16.6089 21.4988H10.5689V21.8596C10.5689 22.8632 9.61401 23.6351 8.61514 23.3342L3.67514 21.8457C3.02072 21.6485 2.58887 21.0413 2.58887 20.3712V3.62887C2.58887 2.95876 3.02072 2.35151 3.67514 2.15433L8.61514 0.665864Z" fill="#575657"/>
<path d="M11.8032 11.9338C11.77 11.9717 11.77 12.0286 11.8032 12.0664L14.9695 15.704C14.9972 15.7356 15.0412 15.747 15.0809 15.7324C15.1203 15.7177 15.1468 15.6798 15.1468 15.6376V12.8422H21.3105C21.3661 12.8422 21.4116 12.7969 21.4116 12.7411V11.1917C21.4116 11.1358 21.3661 11.0906 21.3105 11.0906H15.1468V8.36248C15.1468 8.32025 15.1203 8.28294 15.0809 8.26766C15.0415 8.25301 14.9972 8.26429 14.9695 8.29614L11.8032 11.9338Z" fill="#575657"/>
</svg>
