<svg width="24" height="24" viewBox="0 0 24 24" fill="none" xmlns="http://www.w3.org/2000/svg">
<path d="M2.75293 6.72746V20.4975C2.75293 21.6 3.65294 22.5 4.75546 22.5H16.0204C17.0255 22.5 17.8654 21.75 18.0004 20.775H7.98045C6.05295 20.775 4.47792 19.2 4.47792 17.2725V4.73999C3.50293 4.88249 2.75293 5.72249 2.75293 6.72746Z" fill="#575657"/>
<path d="M21.2476 17.2725V9.02998C21.2476 8.49001 21.0376 7.98747 20.6626 7.61247L15.1351 2.08498C15.0901 2.03998 15.0376 1.99498 14.9926 1.95749V7.25999C14.9926 7.53749 15.2175 7.76248 15.4876 7.76248H17.37C17.7826 7.76248 18.12 8.09999 18.12 8.51248C18.12 8.92497 17.7826 9.26248 17.37 9.26248H15.4876C14.3851 9.26248 13.4926 8.36247 13.4926 7.25999V1.5H7.98007C6.87755 1.5 5.97754 2.40001 5.97754 3.50249V17.2725C5.97754 18.375 6.87755 19.275 7.98007 19.275H19.245C20.3476 19.275 21.2476 18.375 21.2476 17.2725Z" fill="#575657"/>
</svg>
