<svg width="24" height="24" viewBox="0 0 24 24" fill="none" xmlns="http://www.w3.org/2000/svg">
<g clip-path="url(#clip0_1350_16327)">
<path d="M22.3883 1.42629H16.2597V1.13143C16.2597 0.171429 15.4677 0 14.5009 0H9.466C8.49914 0 7.714 0.171429 7.714 1.13143V1.42629H1.60943C1.47227 1.42606 1.33641 1.45291 1.20964 1.5053C1.08288 1.55768 0.967697 1.63457 0.870708 1.73156C0.773719 1.82855 0.696827 1.94373 0.644441 2.0705C0.592055 2.19726 0.565205 2.33312 0.565431 2.47029V4.48629C0.565431 4.76317 0.675424 5.02872 0.871212 5.22451C1.067 5.42029 1.33254 5.53029 1.60943 5.53029H22.3883C22.6652 5.53029 22.9307 5.42029 23.1265 5.22451C23.3223 5.02872 23.4323 4.76317 23.4323 4.48629V2.47029C23.4323 2.1934 23.3223 1.92785 23.1265 1.73207C22.9307 1.53628 22.6652 1.42629 22.3883 1.42629Z" fill="white"/>
<path d="M20.1973 8.30396H3.80018C3.65278 8.30525 3.50732 8.3377 3.37334 8.39917C3.23936 8.46063 3.11989 8.54973 3.02276 8.66062C2.92564 8.7715 2.85305 8.90167 2.80977 9.04258C2.76648 9.18348 2.75348 9.33195 2.77161 9.47824L4.45333 22.2017C4.51605 22.6963 4.75626 23.1513 5.12929 23.482C5.50232 23.8128 5.98278 23.9969 6.48133 24H17.5162C18.0162 23.9989 18.4987 23.8158 18.8736 23.4848C19.2484 23.1539 19.4898 22.6977 19.5528 22.2017L21.2328 9.47824C21.2512 9.33133 21.2383 9.18218 21.1947 9.04067C21.1511 8.89916 21.0779 8.76854 20.98 8.65749C20.8821 8.54643 20.7616 8.45747 20.6267 8.39652C20.4918 8.33557 20.3454 8.30401 20.1973 8.30396Z" fill="white"/>
</g>
<defs>
<clipPath id="clip0_1350_16327">
<rect width="24" height="24" fill="white"/>
</clipPath>
</defs>
</svg>
