<svg width="24" height="24" viewBox="0 0 24 24" fill="none" xmlns="http://www.w3.org/2000/svg">
<path d="M21.3079 6.78375C21.2816 6.7425 21.2629 6.6975 21.2329 6.66L16.6804 1.2C16.5904 1.09875 16.4629 1.03125 16.3204 1.03125H5.23535C3.9416 1.03125 2.8916 2.08125 2.8916 3.375V20.625C2.8916 21.9188 3.9416 22.9688 5.23535 22.9688H19.0016C20.2916 22.9688 21.3454 21.9188 21.3454 20.625V6.96C21.3454 6.89625 21.3304 6.84 21.3079 6.78375ZM16.7929 2.79375L19.8716 6.49125H16.7929V2.79375ZM16.6954 15.585L12.9791 19.305C12.7166 19.5675 12.3716 19.71 12.0004 19.71C11.6291 19.71 11.2841 19.5675 11.0216 19.305L7.30535 15.585C6.7691 15.0488 6.7691 14.1712 7.30535 13.6312C7.83035 13.11 8.73785 13.11 9.2591 13.6312L10.6166 14.9925V9.16875C10.6166 8.4075 11.2391 7.78875 12.0004 7.78875C12.7616 7.78875 13.3841 8.4075 13.3841 9.16875V14.9925L14.7416 13.6312C15.2629 13.11 16.1704 13.11 16.6954 13.6312C17.2316 14.1712 17.2316 15.0488 16.6954 15.585Z" fill="#575657"/>
</svg>
