<svg width="16" height="16" viewBox="0 0 16 16" fill="none" xmlns="http://www.w3.org/2000/svg">
<path d="M14.205 4.5225C14.1875 4.495 14.175 4.465 14.155 4.44L11.12 0.8C11.06 0.7325 10.975 0.6875 10.88 0.6875H3.48999C2.62749 0.6875 1.92749 1.3875 1.92749 2.25V13.75C1.92749 14.6125 2.62749 15.3125 3.48999 15.3125H12.6675C13.5275 15.3125 14.23 14.6125 14.23 13.75V4.64C14.23 4.5975 14.22 4.56 14.205 4.5225ZM11.195 1.8625L13.2475 4.3275H11.195V1.8625ZM11.13 10.39L8.65249 12.87C8.47749 13.045 8.24749 13.14 7.99999 13.14C7.75249 13.14 7.52249 13.045 7.34749 12.87L4.86999 10.39C4.51249 10.0325 4.51249 9.4475 4.86999 9.0875C5.21999 8.74 5.82499 8.74 6.17249 9.0875L7.07749 9.995V6.1125C7.07749 5.605 7.49249 5.1925 7.99999 5.1925C8.50749 5.1925 8.92249 5.605 8.92249 6.1125V9.995L9.82749 9.0875C10.175 8.74 10.78 8.74 11.13 9.0875C11.4875 9.4475 11.4875 10.0325 11.13 10.39Z" fill="#575657"/>
</svg>
