<svg width="13" height="15" viewBox="0 0 13 15" fill="none" xmlns="http://www.w3.org/2000/svg">
<path d="M12.2775 3.835C12.26 3.8075 12.2475 3.7775 12.2275 3.7525L9.1925 0.1125C9.1325 0.045 9.0475 0 8.9525 0H1.5625C0.7 0 0 0.7 0 1.5625V13.0625C0 13.925 0.7 14.625 1.5625 14.625H10.74C11.6 14.625 12.3025 13.925 12.3025 13.0625V3.9525C12.3025 3.91 12.2925 3.8725 12.2775 3.835ZM9.2675 1.175L11.32 3.64H9.2675V1.175ZM9.2025 9.7025L6.725 12.1825C6.55 12.3575 6.32 12.4525 6.0725 12.4525C5.825 12.4525 5.595 12.3575 5.42 12.1825L2.9425 9.7025C2.585 9.345 2.585 8.76 2.9425 8.4C3.2925 8.0525 3.8975 8.0525 4.245 8.4L5.15 9.3075V5.425C5.15 4.9175 5.565 4.505 6.0725 4.505C6.58 4.505 6.995 4.9175 6.995 5.425V9.3075L7.9 8.4C8.2475 8.0525 8.8525 8.0525 9.2025 8.4C9.56 8.76 9.56 9.345 9.2025 9.7025Z" fill="white"/>
</svg>
