<svg width="24" height="24" viewBox="0 0 24 24" fill="none" xmlns="http://www.w3.org/2000/svg">
<g clip-path="url(#clip0_939_11164)">
<path d="M0 6.75944C0.210938 5.88287 0.496875 5.0485 1.11562 4.35944C2.03437 3.33287 3.17344 2.81256 4.53281 2.78912C6.00469 2.76569 7.48125 2.77506 8.95312 2.78444C9.94219 2.78912 10.5937 3.41725 10.5891 4.32194C10.5844 5.20319 9.9375 5.78912 8.95781 5.79381C7.55625 5.7985 6.15469 5.78912 4.75313 5.79381C3.63281 5.7985 3.02344 6.40787 3.02344 7.52819V19.2188C3.02344 20.3813 3.61875 20.9766 4.78125 20.9766H16.4766C17.5922 20.9766 18.2062 20.3626 18.2109 19.2422C18.2156 17.8219 18.2109 16.4063 18.2109 14.986C18.2109 14.1001 18.7687 13.4672 19.5703 13.4157C20.4375 13.3641 21.1734 13.8985 21.1922 14.7751C21.2344 16.5329 21.2812 18.3001 21.1312 20.0485C20.9531 22.0829 19.4625 23.5266 17.4375 23.9157C17.3719 23.9391 17.3109 23.9672 17.25 24.0001H3.98906C3.24844 23.6766 2.44688 23.4469 1.77656 23.011C0.717188 22.3313 0.2625 21.2063 0 20.011L0 6.75944Z" fill="#BF1823"/>
<path d="M20.728 8.04846C20.6249 8.11877 20.4374 8.21252 20.3015 8.34846C17.8734 10.7672 15.464 13.2047 13.0124 15.6047C12.5905 16.0172 12.0374 16.336 11.4843 16.5516C10.2843 17.0157 9.04211 17.3719 7.82336 17.7938C7.31242 17.9719 6.83429 18.0094 6.42179 17.6063C6.00929 17.2032 6.03273 16.7297 6.21086 16.2141C6.66086 14.911 7.07804 13.5985 7.53273 12.3C7.64992 11.9719 7.80929 11.6156 8.04836 11.3719C10.7249 8.69534 13.4155 6.03284 16.0687 3.40784L20.728 8.04846Z" fill="#BF1823"/>
<path d="M21.8484 6.75469L17.3438 2.24532C17.85 1.68751 18.3328 1.02657 18.9469 0.520319C19.875 -0.248431 21.2859 -0.135931 22.2141 0.684381C22.6031 1.03126 22.9734 1.39688 23.3203 1.78126C24.225 2.78438 24.2156 4.31251 23.2969 5.30626C22.8281 5.81719 22.3172 6.29063 21.8484 6.75469Z" fill="#BF1823"/>
</g>
<defs>
<clipPath id="clip0_939_11164">
<rect width="24" height="24" fill="white"/>
</clipPath>
</defs>
</svg>
