<svg width="16" height="16" viewBox="0 0 16 16" fill="none" xmlns="http://www.w3.org/2000/svg">
<g clip-path="url(#clip0_469_15795)">
<path fill-rule="evenodd" clip-rule="evenodd" d="M15.9757 6.16166C15.943 6.06125 15.8793 5.97375 15.7939 5.91168C15.7085 5.8496 15.6056 5.81612 15.5 5.81603H15.4991L10.1263 5.82634L8.47594 0.713532C8.44351 0.612808 8.37996 0.52497 8.29444 0.462658C8.20891 0.400347 8.10582 0.366776 8.00001 0.366776C7.89419 0.366776 7.7911 0.400347 7.70558 0.462658C7.62005 0.52497 7.5565 0.612808 7.52407 0.713532L5.87376 5.82634L0.500943 5.81603H0.500006C0.394273 5.81597 0.29124 5.84942 0.205714 5.91159C0.120187 5.97375 0.0565699 6.06143 0.0240031 6.16203C-0.00856369 6.26262 -0.00840337 6.37095 0.024461 6.47144C0.0573255 6.57194 0.121202 6.65943 0.206912 6.72134L4.55972 9.87103L2.88938 14.9776C2.85648 15.0781 2.8563 15.1865 2.88889 15.2871C2.92147 15.3877 2.98513 15.4754 3.0707 15.5376C3.15628 15.5998 3.25938 15.6332 3.36515 15.6331C3.47093 15.633 3.57395 15.5993 3.65938 15.5369L8.00001 12.3704L12.3406 15.5369C12.4261 15.5993 12.5291 15.6329 12.6348 15.6331C12.7406 15.6332 12.8437 15.5998 12.9293 15.5376C13.0148 15.4754 13.0785 15.3877 13.1111 15.2871C13.1437 15.1865 13.1435 15.0781 13.1106 14.9776L11.4403 9.871L15.7931 6.72134C15.8788 6.65928 15.9425 6.5717 15.9753 6.47116C16.0081 6.37061 16.0082 6.26227 15.9757 6.16166Z" fill="#B2B1B2"/>
</g>
<defs>
<clipPath id="clip0_469_15795">
<rect width="16" height="16" fill="white"/>
</clipPath>
</defs>
</svg>
