<svg width="18" height="24" viewBox="0 0 18 24" fill="none" xmlns="http://www.w3.org/2000/svg">
<path d="M14.9574 0H14.6592C14.8902 0.404766 15.023 0.872484 15.023 1.37081V2.88173H16.6793C17.1524 2.88173 17.6051 3.00084 18.0043 3.22378V3.04688C18.0043 1.36416 16.6402 0 14.9574 0Z" fill="#575657"/>
<path d="M17.61 4.67339C17.365 4.42491 17.0345 4.28803 16.6793 4.28803H13.6168V1.37081C13.6168 0.616078 13.0023 0.001875 12.2462 0H0V24H18.0043V5.68162C18.0098 5.29491 17.8697 4.93683 17.61 4.67339ZM14.347 18.093H11.3038V19.4989H14.347V20.9046H3.93586V19.4989H6.74934V18.093H3.93586V16.6873H6.74934V13.5581C5.25905 12.7415 4.3193 11.177 4.3193 9.45141C4.3193 7.47698 5.56847 5.70441 7.42767 5.0407L8.36686 4.70545V8.23125C8.36686 8.58159 8.65186 8.86659 9.00225 8.86659C9.35259 8.86659 9.63759 8.58155 9.63759 8.23125V4.70541L10.5767 5.04066C12.4359 5.70441 13.6851 7.47689 13.6851 9.45136C13.6851 11.1511 12.7643 12.705 11.3038 13.5295V16.6872H14.347V18.093Z" fill="#575657"/>
<path d="M8.15519 12.6525V19.4936H9.89824V12.6374L10.3184 12.4528C11.5098 11.9294 12.2795 10.7513 12.2795 9.45136C12.2795 8.43708 11.8085 7.49888 11.0434 6.88791V8.23125C11.0434 9.35667 10.1278 10.2723 9.00232 10.2723C7.87685 10.2723 6.96124 9.35672 6.96124 8.23125V6.88791C6.19614 7.49892 5.7251 8.43713 5.7251 9.45141C5.7251 10.7713 6.51058 11.9566 7.72624 12.4711L8.15519 12.6525Z" fill="#575657"/>
</svg>
