<svg width="24" height="24" viewBox="0 0 24 24" fill="none" xmlns="http://www.w3.org/2000/svg">
<g clip-path="url(#clip0_939_11080)">
<path d="M12.5945 6.65124L9.3938 10.671V18.9307C9.39381 19.0624 9.35915 19.1917 9.29333 19.3057C9.2275 19.4197 9.13282 19.5144 9.0188 19.5803L6.14719 21.2382C6.03318 21.304 5.90384 21.3387 5.77218 21.3387C5.64053 21.3387 5.51119 21.304 5.39718 21.2382C5.28316 21.1723 5.18849 21.0777 5.12266 20.9636C5.05684 20.8496 5.02219 20.7203 5.02219 20.5886V10.671L1.82157 6.65124H12.5945ZM14.1396 4.71061C14.2876 4.52473 14.3802 4.30085 14.4066 4.06473C14.4331 3.8286 14.3924 3.58979 14.2892 3.37576C14.186 3.16172 14.0245 2.98114 13.8233 2.85477C13.6221 2.7284 13.3893 2.66137 13.1517 2.66138H1.26446C1.02685 2.66137 0.794054 2.72841 0.592838 2.85479C0.391621 2.98116 0.230144 3.16175 0.126967 3.37579C0.0237897 3.58983 -0.0169014 3.82864 0.00957043 4.06477C0.0360423 4.3009 0.128603 4.52478 0.276614 4.71066L0.627379 5.15128H13.7888L14.1396 4.71061ZM14.1793 6.85425C14.1793 7.05316 14.2583 7.24393 14.3989 7.38458C14.5396 7.52523 14.7304 7.60425 14.9293 7.60425H16.7818V8.03302C16.7818 8.23193 16.8608 8.4227 17.0015 8.56335C17.1421 8.704 17.3329 8.78302 17.5318 8.78302H19.8891C20.088 8.78302 20.2788 8.704 20.4194 8.56335C20.5601 8.4227 20.6391 8.23193 20.6391 8.03302V7.60425H23.2501C23.449 7.60425 23.6397 7.52523 23.7804 7.38458C23.921 7.24393 24.0001 7.05316 24.0001 6.85425C24.0001 6.65534 23.921 6.46457 23.7804 6.32392C23.6397 6.18327 23.449 6.10425 23.2501 6.10425H20.6391V5.67549C20.6391 5.47657 20.5601 5.28581 20.4194 5.14516C20.2788 5.0045 20.088 4.92549 19.8891 4.92549H17.5318C17.3329 4.92549 17.1421 5.0045 17.0015 5.14516C16.8608 5.28581 16.7818 5.47657 16.7818 5.67549V6.10425H14.9293C14.7304 6.10425 14.5396 6.18327 14.3989 6.32392C14.2583 6.46457 14.1793 6.65534 14.1793 6.85425ZM23.2501 11.5151H16.4078V11.0933C16.4078 10.8943 16.3288 10.7036 16.1882 10.5629C16.0475 10.4223 15.8568 10.3433 15.6578 10.3433H13.3141C13.1152 10.3433 12.9244 10.4223 12.7838 10.5629C12.6431 10.7036 12.5641 10.8943 12.5641 11.0933V11.5151H11.5903C11.3914 11.5151 11.2006 11.5941 11.06 11.7348C10.9193 11.8754 10.8403 12.0662 10.8403 12.2651C10.8403 12.464 10.9193 12.6548 11.06 12.7955C11.2006 12.9361 11.3914 13.0151 11.5903 13.0151H12.5641V13.437C12.5641 13.6359 12.6431 13.8267 12.7838 13.9673C12.9244 14.108 13.1152 14.187 13.3141 14.187H15.6578C15.8568 14.187 16.0475 14.108 16.1882 13.9673C16.3288 13.8267 16.4078 13.6359 16.4078 13.437V13.0151H23.2501C23.449 13.0151 23.6397 12.9361 23.7804 12.7955C23.921 12.6548 24.0001 12.464 24.0001 12.2651C24.0001 12.0662 23.921 11.8754 23.7804 11.7348C23.6397 11.5941 23.449 11.5151 23.2501 11.5151ZM23.2501 16.926H22.3313V16.5041C22.3313 16.3052 22.2523 16.1144 22.1116 15.9738C21.971 15.8331 21.7802 15.7541 21.5813 15.7541H19.2376C19.0386 15.7541 18.8479 15.8331 18.7072 15.9738C18.5666 16.1144 18.4876 16.3052 18.4876 16.5041V16.926H11.5903C11.3914 16.926 11.2006 17.005 11.06 17.1457C10.9193 17.2863 10.8403 17.4771 10.8403 17.676C10.8403 17.8749 10.9193 18.0657 11.06 18.2063C11.2006 18.347 11.3914 18.426 11.5903 18.426H18.4876V18.8479C18.4876 19.0468 18.5666 19.2376 18.7072 19.3782C18.8479 19.5189 19.0386 19.5979 19.2376 19.5979H21.5813C21.7802 19.5979 21.971 19.5189 22.1116 19.3782C22.2523 19.2376 22.3313 19.0468 22.3313 18.8479V18.426H23.2501C23.449 18.426 23.6397 18.347 23.7804 18.2063C23.921 18.0657 24.0001 17.8749 24.0001 17.676C24.0001 17.4771 23.921 17.2863 23.7804 17.1457C23.6397 17.005 23.449 16.926 23.2501 16.926Z" fill="#BF1823"/>
</g>
<defs>
<clipPath id="clip0_939_11080">
<rect width="24" height="24" fill="white"/>
</clipPath>
</defs>
</svg>
