<svg width="16" height="16" viewBox="0 0 16 16" fill="none" xmlns="http://www.w3.org/2000/svg">
<g clip-path="url(#clip0_756_24433)">
<path d="M0 12.6249L5.01375 12.6266C6.73458 14.0283 9.2325 14.062 10.9529 12.6249H15.9688V13.8591C15.9688 13.8933 15.855 14.1353 15.8254 14.1845C15.6167 14.5358 15.285 14.6612 14.8917 14.6883H1.10792C0.53875 14.6528 0.15625 14.4087 0 13.8433V12.6245V12.6249Z" fill="#575657"/>
<path d="M16 4.37479V5.56229H10.9538C9.25583 4.14854 6.745 4.1552 5.04625 5.56187H0V4.37479C0.118333 3.92145 0.4125 3.59729 0.890833 3.53145L15.0479 3.52979C15.5633 3.56854 15.8679 3.89812 15.9996 4.37479H16Z" fill="#575657"/>
<path d="M0 6.09375L4.50042 6.10958C3.03292 7.82292 3.05125 10.3729 4.50042 12.0933H0V6.09375Z" fill="#575657"/>
<path d="M16 6.09375V12.0938H11.5C12.9554 10.3788 12.9613 7.82042 11.5 6.10958L16.0004 6.09375H16Z" fill="#575657"/>
<path d="M7.5876 5.0406C10.6293 4.78393 12.9084 7.71976 11.7963 10.5931C10.6176 13.6402 6.43426 14.0835 4.61218 11.3718C2.91635 8.84851 4.55468 5.29643 7.5876 5.04018V5.0406ZM7.58718 5.82143C6.30926 5.9456 5.16926 6.96601 4.82801 8.18726C4.02343 11.0668 7.12426 13.4689 9.69676 11.931C12.6968 10.1377 11.2068 5.46976 7.58676 5.82101L7.58718 5.82143Z" fill="#575657"/>
<path d="M11 3.00005H4.96875C5.2875 2.55713 5.51417 1.65713 6.03125 1.42213C6.185 1.35213 6.40667 1.32172 6.57667 1.3113C7.39583 1.25963 8.67208 1.25047 9.48583 1.3113C10.5246 1.38922 10.5638 2.26172 11.0004 3.00005H11Z" fill="#575657"/>
<path d="M14.25 3.00022H12.5625V2.32855C12.5625 2.22314 12.7971 2.03855 12.9042 2.01397C13.0833 1.9723 13.7733 1.98147 13.9375 2.04772C14.0538 2.09439 14.25 2.30022 14.25 2.42272V3.00105V3.00022Z" fill="#575657"/>
<path d="M3.46875 3.00001H1.78125V2.39084C1.78125 2.24959 2.01542 2.04334 2.15458 2.01418C2.31125 1.98126 2.97125 1.97834 3.11958 2.02126C3.24417 2.05709 3.46875 2.26084 3.46875 2.39084V3.00001Z" fill="#575657"/>
<path d="M7.58699 5.82152C11.2066 5.47027 12.697 10.1382 9.69699 11.9315C7.12449 13.4694 4.02324 11.0674 4.82824 8.18777C5.16949 6.96652 6.30949 5.94569 7.58741 5.82194L7.58699 5.82152ZM7.61783 6.32111C6.40116 6.45027 5.38991 7.51319 5.22241 8.70694C4.87074 11.2082 7.82116 12.8911 9.76491 11.2807C11.9378 9.48027 10.4745 6.01819 7.61824 6.32152L7.61783 6.32111Z" fill="white"/>
<path d="M7.61797 6.32138C10.4742 6.01847 11.9376 9.48013 9.76464 11.2806C7.82089 12.8914 4.87047 11.2081 5.22214 8.7068C5.39005 7.51305 6.4013 6.45013 7.61755 6.32097L7.61797 6.32138ZM7.99089 6.85055C7.73172 6.90972 7.70422 7.28055 7.95964 7.33722C8.14047 7.37763 8.32672 7.36097 8.52964 7.42347C9.12839 7.60763 9.61422 8.12763 9.74047 8.74388C9.78547 8.96305 9.72255 9.33388 10.0159 9.34597C10.4492 9.36388 10.2738 8.71763 10.2026 8.46888C9.96838 7.65555 9.2413 7.02888 8.41213 6.8843C8.2988 6.8643 8.09672 6.82597 7.99047 6.85055H7.99089Z" fill="#575657"/>
<path d="M7.99079 6.85052C8.09704 6.82635 8.29912 6.86469 8.41245 6.88427C9.2412 7.02885 9.9687 7.65552 10.2029 8.46885C10.2745 8.71719 10.4495 9.36385 10.0162 9.34594C9.72245 9.33385 9.78537 8.9626 9.74079 8.74385C9.61454 8.1276 9.1287 7.6076 8.52995 7.42344C8.32662 7.36094 8.14079 7.3776 7.95995 7.33719C7.70454 7.28052 7.73204 6.90969 7.9912 6.85052H7.99079Z" fill="white"/>
</g>
<defs>
<clipPath id="clip0_756_24433">
<rect width="16" height="16" fill="white"/>
</clipPath>
</defs>
</svg>
