<svg width="24" height="24" viewBox="0 0 24 24" fill="none" xmlns="http://www.w3.org/2000/svg">
<path d="M5.59847 0C2.51147 0 0 2.72527 0 6.07506C0 9.42476 2.51147 12.15 5.59847 12.15C8.68542 12.15 11.1969 9.42476 11.1969 6.07501C11.1969 2.72527 8.68547 0 5.59847 0ZM5.59847 10.6241C3.28683 10.624 1.40625 8.58339 1.40625 6.07506C1.40625 3.56669 3.28683 1.52596 5.59847 1.52596C7.91006 1.52596 9.79069 3.56669 9.79069 6.07506C9.79069 8.58339 7.91011 10.6241 5.59847 10.6241Z" fill="#575657"/>
<path d="M23.9279 13.0951C23.9269 13.0931 23.9267 13.091 23.9257 13.089L21.6664 8.18557C21.5473 7.92708 21.3039 7.7638 21.0375 7.7638H15.7157V6.07512C15.7157 5.65375 15.4009 5.31213 15.0126 5.31213H12.568C12.5912 5.56315 12.6032 5.81758 12.6032 6.07512C12.6032 10.2662 9.46092 13.676 5.59847 13.676C3.3127 13.676 1.27936 12.4818 0 10.6382V20.7854C0 21.2067 0.314812 21.5483 0.703125 21.5483H3.85059C4.16719 22.9537 5.33686 24 6.72811 24C8.11945 24 9.28912 22.9537 9.60562 21.5483H14.3945C14.711 22.9537 15.8806 24 17.2719 24C18.6631 24 19.8328 22.9537 20.1494 21.5483H23.2969C23.6852 21.5483 24 21.2067 24 20.7854V13.4302C24 13.3098 23.9737 13.1963 23.9279 13.0951ZM6.72811 22.474C5.86997 22.474 5.17191 21.7164 5.17191 20.7853C5.17191 19.8542 5.87002 19.0966 6.72811 19.0966C7.5862 19.0966 8.28441 19.8542 8.28441 20.7853C8.28441 21.7164 7.58625 22.474 6.72811 22.474ZM17.2719 22.474C16.4138 22.474 15.7157 21.7164 15.7157 20.7853C15.7157 19.8542 16.4138 19.0966 17.2719 19.0966C18.13 19.0966 18.8281 19.8542 18.8281 20.7853C18.8281 21.7164 18.13 22.474 17.2719 22.474ZM15.7157 12.6672V9.28971H20.6031L22.1593 12.6672H15.7157Z" fill="#575657"/>
</svg>
