<svg width="27" height="26" viewBox="0 0 27 26" fill="none" xmlns="http://www.w3.org/2000/svg">
<path d="M11.6157 1.86354C11.6645 1.85635 11.7148 1.84622 11.7636 1.83962C11.839 1.83115 11.9104 1.82639 11.9847 1.81832C12.181 1.79581 12.3771 1.7744 12.5758 1.76135C12.5864 1.76061 12.5973 1.75896 12.6079 1.75825L13.036 1.73939C13.0659 1.73872 13.0954 1.73983 13.1253 1.73931C13.2183 1.73729 13.3101 1.72818 13.4033 1.72818C13.537 1.72818 13.6711 1.73471 13.8051 1.73887C13.8418 1.73939 13.8799 1.73813 13.9163 1.7388C13.9519 1.74023 13.9841 1.743 14.0189 1.74455C14.0716 1.74705 14.1244 1.7503 14.1772 1.75346C14.2435 1.75722 14.3123 1.75936 14.3779 1.76474L14.6486 1.78833C14.6707 1.79009 14.6924 1.79444 14.7145 1.79632C14.8042 1.80546 14.8934 1.81795 14.983 1.82897C15.3697 1.87017 15.7513 1.9295 16.1287 2.00472C15.9329 0.867998 14.9415 0 13.75 0C12.5985 0 11.6321 0.810731 11.3921 1.89092C11.4656 1.87876 11.5417 1.87434 11.6157 1.86354Z" fill="#575657"/>
<path d="M16.6546 3.04837C16.64 3.04977 16.626 3.05486 16.6114 3.05486C16.5719 3.05486 16.5324 3.04955 16.4935 3.03953C16.0451 2.91844 15.5867 2.82447 15.1241 2.75743C15.1129 2.756 15.1017 2.75471 15.0905 2.75331C14.8741 2.72253 14.6567 2.69744 14.4391 2.67857L14.4055 2.67562C14.2161 2.65974 14.0268 2.65082 13.8374 2.64393C13.5831 2.63958 13.3187 2.63896 13.0648 2.64448L12.658 2.66217C12.4166 2.67901 12.1638 2.70706 11.9107 2.73462C11.8896 2.73739 11.8682 2.73956 11.8473 2.74247C11.686 2.76462 11.5177 2.79336 11.3492 2.82365C11.2291 2.84591 11.1079 2.8653 10.9897 2.89157L10.9693 2.89566C10.3806 3.02446 9.8377 3.21078 9.32075 3.42238C10.4649 4.52273 11.181 6.0651 11.181 7.7742C11.181 11.1062 8.46992 13.8172 5.13796 13.8172C5.13531 13.8172 5.13266 13.8168 5.12986 13.8168C4.77682 16.3679 3.84757 18.8339 2.29053 21.3067C2.66951 21.1872 3.08401 21.0721 3.5448 20.9635C3.66921 20.9322 3.80542 20.8992 3.94751 20.8733L3.99468 20.8621C4.00471 20.8591 4.04834 20.8491 4.05836 20.8467C4.21638 20.8119 4.37912 20.7825 4.54303 20.753C4.60494 20.7414 4.65963 20.7329 4.72021 20.7219C4.88354 20.6918 5.04922 20.6628 5.21668 20.6348C5.36099 20.6104 5.50559 20.5873 5.64548 20.5657C5.68557 20.5595 5.72641 20.5536 5.7668 20.5476C5.92201 20.5241 6.07915 20.4988 6.2323 20.4782C6.39976 20.4534 6.56662 20.4287 6.73997 20.4098C6.89917 20.3868 7.0731 20.3685 7.25412 20.3497L7.3856 20.3326C7.47287 20.322 7.56013 20.3143 7.6474 20.306L8.12234 20.261C8.13207 20.26 8.1418 20.2591 8.15152 20.2582L8.66037 20.2099C8.95518 20.1856 9.26208 20.1638 9.57694 20.1433C9.63973 20.1391 9.70238 20.135 9.76503 20.131C9.8175 20.1278 9.87013 20.1245 9.92319 20.1213C10.3384 20.0959 10.7518 20.0747 11.1598 20.0586C11.1651 20.0584 11.1699 20.0581 11.1754 20.0579C11.5861 20.0396 12.0109 20.0258 12.4422 20.0167C12.8731 20.0075 13.3112 20.003 13.7494 20.003C14.6257 20.003 15.5023 20.0213 16.3237 20.0578C16.3306 20.0581 16.3377 20.0585 16.3446 20.0587C16.6691 20.0719 16.9481 20.0836 17.2252 20.1003C17.2314 20.1006 17.2373 20.1012 17.2435 20.1016C17.8004 20.1323 18.362 20.1716 18.9216 20.2198C18.9332 20.2208 18.9459 20.2213 18.9575 20.2223C18.9833 20.2244 19.008 20.2277 19.0336 20.2298C19.3843 20.2608 19.7335 20.2954 20.0797 20.3334C20.1356 20.3396 20.1946 20.3438 20.25 20.3503C20.2896 20.3548 20.3269 20.3607 20.3664 20.3652C21.0707 20.4471 21.7585 20.5446 22.4157 20.6575C22.4988 20.6716 22.5904 20.6835 22.6722 20.6975C22.6733 20.6981 22.7329 20.7093 22.7335 20.7093C23.0018 20.76 23.2211 20.8031 23.4286 20.8455C24.1085 20.9882 24.681 21.1368 25.1804 21.2996C25.2895 21.3326 25.3691 21.3567 25.444 21.3856L25.5218 21.4114C22.6781 16.4236 22.5119 12.7616 22.6008 9.69578C22.6916 6.52766 20.4701 4.05353 16.6546 3.04837Z" fill="#575657"/>
<path d="M14.9729 20.9218C14.6521 20.9152 14.3331 20.913 14.0146 20.9116C13.7972 20.9106 13.5821 20.9113 13.3648 20.9127C13.1916 20.9137 13.0196 20.9155 12.8484 20.9181C12.7484 20.9195 12.6469 20.9193 12.5473 20.9213C12.4105 20.9239 12.2787 20.9289 12.1437 20.9324C11.9319 20.9381 11.7214 20.9448 11.5124 20.9527C11.4039 21.2803 11.3467 21.6177 11.3467 21.941C11.3467 23.4381 12.5536 24.1085 13.75 24.1085C14.9457 24.1085 16.1527 23.4381 16.1527 21.941C16.1527 21.6167 16.0956 21.2802 15.9873 20.9535C15.7363 20.9441 15.4852 20.9353 15.2348 20.9291C15.1468 20.927 15.0616 20.9236 14.9729 20.9218Z" fill="#575657"/>
<path d="M5.13797 12.9116C7.97052 12.9116 10.2754 10.6067 10.2754 7.7742C10.2754 4.94107 7.97052 2.63623 5.13797 2.63623C2.30483 2.63623 0 4.94107 0 7.7742C-6.03774e-08 10.6067 2.30483 12.9116 5.13797 12.9116ZM4.36616 7.28717C4.21757 7.48823 3.93396 7.53128 3.7329 7.38269C3.53125 7.23411 3.4888 6.9505 3.63738 6.74944L4.77358 5.2117C4.89033 5.05427 5.09434 4.98941 5.27948 5.05073C5.46521 5.11147 5.5908 5.28482 5.5908 5.48057V9.61441H6.34965C6.59965 9.61441 6.80248 9.81724 6.80248 10.0672C6.80248 10.3172 6.59965 10.5201 6.34965 10.5201H3.92571C3.67571 10.5201 3.47288 10.3172 3.47288 10.0672C3.47288 9.81724 3.67571 9.61441 3.92571 9.61441H4.68514V6.85557L4.36616 7.28717Z" fill="#575657"/>
<path d="M26.7427 23.7108C26.8834 23.5855 26.9541 23.4671 26.9541 23.3603C26.9541 23.3333 26.9404 23.3025 26.928 23.2722C26.9171 23.2473 26.9022 23.2205 26.8845 23.1929C26.8636 23.1622 26.8441 23.1318 26.8135 23.0994C26.8101 23.0957 26.8041 23.0906 26.8002 23.0867C26.7079 22.9924 26.5782 22.8928 26.4146 22.7955C26.4064 22.7902 26.3981 22.7854 26.3904 22.7801C26.3674 22.7672 26.3444 22.7542 26.3209 22.7406C26.1693 22.6557 26.0626 22.605 25.9453 22.5496C25.937 22.5455 25.8928 22.5231 25.8851 22.5189C25.7489 22.4623 25.5638 22.3868 25.3598 22.3114L25.1487 22.2412C25.065 22.21 25.0066 22.1929 24.9506 22.1758C24.8633 22.1475 24.7741 22.1211 24.6852 22.0943C23.7564 21.8255 22.5508 21.5731 21.0843 21.3706C20.8769 21.3403 20.6673 21.3149 20.4577 21.29C20.3054 21.2714 20.1543 21.2526 19.9969 21.2352C19.6771 21.1995 19.3518 21.1672 19.0222 21.1385C18.9661 21.1335 18.9128 21.1276 18.8562 21.1227C18.3409 21.0784 17.8105 21.0403 17.2662 21.0112C17.1581 21.0051 17.0464 21.0003 16.9367 20.9948C17.0141 21.31 17.0585 21.6291 17.0585 21.9411C17.0585 23.7506 15.6982 25.0142 13.7501 25.0142C11.802 25.0142 10.4411 23.7506 10.4411 21.9411C10.4411 21.6294 10.4857 21.3103 10.563 20.9948C10.4273 21.0016 10.2886 21.0075 10.1555 21.0151C10.0591 21.0206 9.96075 21.0259 9.86656 21.0316C9.35594 21.0636 8.87039 21.1029 8.39913 21.1459L7.51337 21.2339C5.8185 21.4215 4.41107 21.6753 3.31924 21.9549C3.31054 21.9571 3.3014 21.9593 3.29271 21.9616C3.12629 22.0044 2.97387 22.0483 2.82219 22.0922C2.72888 22.1196 2.63395 22.1468 2.54595 22.1746C2.48684 22.193 2.4323 22.2116 2.3757 22.2301C2.03091 22.3451 1.72578 22.4633 1.47239 22.585L1.46886 22.5777C1.46591 22.5791 1.46296 22.5804 1.46001 22.5818L1.46355 22.5897C1.41815 22.6121 1.37923 22.631 1.33855 22.6498C1.33088 22.6545 1.32322 22.6593 1.31496 22.6634C1.18053 22.7331 1.06983 22.8003 0.97431 22.865L0.940112 22.8885C0.853585 22.9491 0.781798 23.0072 0.726079 23.0612C0.718561 23.0689 0.710601 23.0767 0.705589 23.0829C0.656061 23.1336 0.617441 23.1813 0.592234 23.2242C0.589581 23.2287 0.586928 23.2331 0.584127 23.2377C0.559068 23.2839 0.545654 23.3256 0.545654 23.36C0.546539 24.1086 4.01883 25.424 10.6938 25.7411C11.6475 25.7865 12.6665 25.8114 13.7501 25.8114C14.8338 25.8114 15.8528 25.7865 16.8066 25.7411C22.5283 25.4693 25.8968 24.464 26.7427 23.7108Z" fill="#575657"/>
</svg>
