<svg width="32" height="32" viewBox="0 0 32 32" fill="none" xmlns="http://www.w3.org/2000/svg">
<g clip-path="url(#clip0_939_13018)">
<path d="M17.0059 0L18.6434 0.205833C25.4909 1.32667 30.9659 6.96 31.8659 13.8525C31.9151 14.2283 31.9042 14.64 32.0001 15V17C31.9034 17.36 31.9159 17.7717 31.8659 18.1475C30.9517 25.0475 25.5017 30.6667 18.6434 31.7942L17.0059 32H15.0067C14.6467 31.9033 14.2351 31.9158 13.8601 31.8658C6.79174 30.9283 1.0709 25.2275 0.145903 18.1475C0.0967364 17.7717 0.10757 17.36 0.0117364 17C0.0400698 16.3392 -0.0265969 15.6592 0.0117364 15C0.476736 7.05667 7.0659 0.465 15.0067 0H17.0059ZM14.9317 2.26833C5.59257 2.89917 -0.364097 12.8808 3.37507 21.48C7.74507 31.53 21.6792 32.6942 27.5901 23.4325C33.7376 13.8008 26.2467 1.505 14.9309 2.26917L14.9317 2.26833Z" fill="#575657"/>
<path d="M15.8707 13.3275C16.4915 13.3041 17.5674 13.5233 17.6332 14.2775L17.6274 22.465C17.2057 23.7291 14.5082 23.6508 14.3799 22.2833L14.3865 14.2225C14.4824 13.5991 15.3349 13.3475 15.8715 13.3275H15.8707Z" fill="#575657"/>
<path d="M17.2959 8.89745C17.7926 9.40495 17.8401 10.1833 17.4059 10.745C16.6284 11.7516 14.7568 11.55 14.3509 10.3125C13.8201 8.69412 16.1676 7.74662 17.2959 8.89745Z" fill="#575657"/>
</g>
<defs>
<clipPath id="clip0_939_13018">
<rect width="32" height="32" fill="white"/>
</clipPath>
</defs>
</svg>
