<svg width="24" height="24" viewBox="0 0 24 24" fill="none" xmlns="http://www.w3.org/2000/svg">
<path d="M0 6.75748C0.210938 5.88092 0.496875 5.04655 1.11562 4.35748C2.03437 3.33092 3.17344 2.81061 4.53281 2.78717C6.00469 2.76373 7.48125 2.77311 8.95312 2.78248C9.94219 2.78717 10.5938 3.4153 10.5891 4.31998C10.5844 5.20123 9.9375 5.78717 8.95781 5.79186C7.55625 5.79655 6.15469 5.78717 4.75313 5.79186C3.63281 5.79655 3.02344 6.40592 3.02344 7.52623V19.2169C3.02344 20.3794 3.61875 20.9747 4.78125 20.9747H16.4766C17.5922 20.9747 18.2062 20.3606 18.2109 19.2403C18.2156 17.82 18.2109 16.4044 18.2109 14.984C18.2109 14.0981 18.7687 13.4653 19.5703 13.4137C20.4375 13.3622 21.1734 13.8965 21.1922 14.7731C21.2344 16.5309 21.2812 18.2981 21.1312 20.0465C20.9531 22.0809 19.4625 23.5247 17.4375 23.9137C17.3719 23.9372 17.3109 23.9653 17.25 23.9981H3.98906C3.24844 23.6747 2.44688 23.445 1.77656 23.009C0.717188 22.3294 0.2625 21.2044 0 20.009L0 6.75748Z" fill="white"/>
<path d="M20.728 8.04651C20.6249 8.11682 20.4374 8.21057 20.3015 8.34651C17.8734 10.7653 15.464 13.2028 13.0124 15.6028C12.5905 16.0153 12.0374 16.334 11.4843 16.5496C10.2843 17.0137 9.04211 17.3699 7.82336 17.7918C7.31242 17.9699 6.83429 18.0074 6.42179 17.6043C6.00929 17.2012 6.03273 16.7278 6.21086 16.2121C6.66086 14.909 7.07804 13.5965 7.53273 12.2981C7.64992 11.9699 7.80929 11.6137 8.04836 11.3699C10.7249 8.69338 13.4155 6.03088 16.0687 3.40588L20.728 8.04651Z" fill="white"/>
<path d="M21.8484 6.75274L17.3438 2.24337C17.85 1.68555 18.3328 1.02462 18.9469 0.518366C19.875 -0.250384 21.2859 -0.137884 22.2141 0.682428C22.6031 1.0293 22.9734 1.39493 23.3203 1.7793C24.225 2.78243 24.2156 4.31055 23.2969 5.3043C22.8281 5.81524 22.3172 6.28868 21.8484 6.75274Z" fill="white"/>
</svg>
