<svg width="24" height="24" viewBox="0 0 24 24" fill="none" xmlns="http://www.w3.org/2000/svg">
<path d="M8.80052 5.67193L19.6605 5.66443C20.9636 5.93255 20.9299 7.68943 19.618 7.9063L8.84052 7.90193C7.5824 7.63068 7.54865 5.98755 8.80115 5.6713L8.80052 5.67193Z" fill="#BF1823"/>
<path d="M8.80052 10.9119L18.9105 10.9044C20.2136 11.1725 20.1799 12.9294 18.868 13.1463L8.84052 13.1419C7.5824 12.8707 7.54865 11.2275 8.80115 10.9113L8.80052 10.9119Z" fill="#BF1823"/>
<path d="M8.80052 16.1519L17.4105 16.1444C18.6911 16.4075 18.6899 18.1194 17.4105 18.3819H8.84052C7.5824 18.1107 7.54865 16.4675 8.80115 16.1513L8.80052 16.1519Z" fill="#BF1823"/>
<path d="M4.3001 5.67245C5.83448 5.42933 6.0976 7.72183 4.6601 7.90245C3.17885 8.0887 2.91385 5.89183 4.3001 5.67245Z" fill="#BF1823"/>
<path d="M4.3001 10.9118C5.83448 10.6687 6.0976 12.9612 4.6601 13.1418C3.17885 13.3281 2.91385 11.1312 4.3001 10.9118Z" fill="#BF1823"/>
<path d="M4.3001 16.1518C5.83448 15.9087 6.0976 18.2012 4.6601 18.3818C3.17885 18.5681 2.91385 16.3712 4.3001 16.1518Z" fill="#BF1823"/>
</svg>
