<svg width="214" height="24" viewBox="0 0 214 24" fill="none" xmlns="http://www.w3.org/2000/svg">
<g clip-path="url(#clip0_902_10589)">
<path d="M81.9148 16.0355C81.9148 13.5715 81.9246 11.1123 81.905 8.6483C81.905 8.21176 82.0029 8.0905 82.4583 8.09535C86.4343 8.11476 90.4104 8.08565 94.3864 8.11475C97.1383 8.13416 98.7639 9.36132 99.5131 11.9757C99.6698 12.5287 99.9146 13.0622 99.944 13.6637C100.022 15.2595 99.5866 16.7146 98.8276 18.097C98.7101 18.3104 98.6905 18.4219 98.9304 18.5578C99.6992 18.9895 99.8608 19.7704 99.9146 20.5319C99.9832 21.5311 99.9195 22.54 99.9391 23.544C99.944 23.8496 99.8608 23.9515 99.5376 23.9466C98.5044 23.9272 97.4712 23.9272 96.4381 23.9466C96.1002 23.9515 95.9876 23.8544 95.9974 23.5149C96.0219 22.7679 96.0072 22.0161 96.0023 21.2692C95.9974 19.9935 95.4245 19.4163 94.1367 19.4551C91.5121 19.5327 88.8924 19.5084 86.2679 19.4939C85.9104 19.4939 85.837 19.5958 85.837 19.9207C85.8517 21.0848 85.8272 22.2441 85.8517 23.4082C85.8615 23.7962 85.7831 23.966 85.3375 23.9515C84.3435 23.9175 83.3495 23.9224 82.3555 23.9515C81.9687 23.9612 81.9001 23.8302 81.905 23.481C81.9197 20.9975 81.9099 18.519 81.9099 16.0355H81.9148ZM90.0333 16.6176C91.0273 16.6224 92.0213 16.6321 93.0154 16.6176C93.505 16.6127 93.9996 16.637 94.4794 16.4381C95.5567 15.9919 95.8407 14.8375 95.7183 13.9256C95.5763 12.8827 94.4207 11.9903 93.3287 11.9854C91.0029 11.9806 88.677 11.9951 86.3511 11.9854C85.9839 11.9854 85.8272 12.0582 85.837 12.4656C85.8664 13.6879 85.8615 14.9054 85.837 16.1277C85.8321 16.5157 85.9447 16.637 86.3364 16.6273C87.5704 16.603 88.7994 16.6176 90.0333 16.6176Z" fill="#575657"/>
<path d="M34.0801 8.10996C35.4315 8.10996 36.7879 8.0663 38.1344 8.11966C39.5593 8.17786 40.8814 8.55135 41.8852 9.6524C42.5022 10.3266 42.8547 11.1318 43.0163 12.0194C43.0898 12.4075 43.0114 12.6306 42.5071 12.6112C41.4739 12.5675 40.4407 12.5966 39.4076 12.6015C39.1578 12.6015 38.9718 12.5869 38.8298 12.3153C38.3597 11.4422 37.5371 11.1124 36.5969 11.0978C34.9076 11.0639 33.2183 11.0687 31.529 11.0978C30.6868 11.1124 29.9327 11.3889 29.4136 12.1164C29.0856 12.5772 29.0905 13.0235 29.4234 13.4794C29.967 14.2118 30.7357 14.4737 31.6073 14.4834C33.9528 14.5028 36.2982 14.5077 38.6437 14.5125C41.0724 14.5222 42.9576 16.4721 43.0408 18.8828C43.1339 21.5554 41.185 23.2433 39.1529 23.675C38.11 23.8982 37.1062 23.903 36.0828 23.9273C34.511 23.9661 32.9392 23.8739 31.3723 23.9564C30.1775 24.0194 29.0807 23.7332 27.9985 23.3549C26.319 22.768 25.4376 21.5069 25.1389 19.8092C25.0655 19.3921 25.1781 19.2126 25.658 19.232C26.652 19.2708 27.646 19.2514 28.64 19.2369C28.9632 19.2369 29.1639 19.2999 29.3451 19.6201C29.8103 20.4349 30.6084 20.7357 31.5045 20.7502C33.2134 20.7745 34.9223 20.7745 36.6361 20.7502C37.4832 20.7357 38.2275 20.4446 38.7367 19.7171C39.0305 19.2951 39.0452 18.8779 38.7514 18.456C38.3058 17.8157 37.7035 17.4568 36.9005 17.4568C34.6138 17.4568 32.3271 17.4665 30.0404 17.4568C29.2227 17.4519 28.4196 17.2967 27.6705 16.962C25.8881 16.1617 25.0116 14.5319 25.1291 12.2425C25.2173 10.5255 26.4316 8.99274 28.1552 8.44949C28.8358 8.23607 29.5361 8.10511 30.2607 8.10996C31.5339 8.11966 32.807 8.10996 34.0801 8.10996Z" fill="#575657"/>
<path d="M110.638 23.8253C109.546 23.8253 108.449 23.8253 107.357 23.8253C103.998 23.8156 102.387 21.9094 101.883 19.3726C101.545 17.675 101.81 15.9579 101.721 14.2554C101.677 13.3969 101.844 12.5723 102.098 11.7623C102.799 9.52622 104.581 8.2263 106.956 8.2263C109.399 8.2263 111.848 8.236 114.291 8.2263C117.978 8.2069 119.418 10.9571 119.623 13.5521C119.653 13.9159 119.565 14.0711 119.148 14.0614C118.115 14.0323 117.082 14.0468 116.049 14.0565C115.765 14.0565 115.584 14.0177 115.461 13.7122C115.016 12.6014 114.154 12.1018 112.954 12.1115C111.402 12.1261 109.855 12.1115 108.302 12.1115C106.927 12.1115 105.952 12.9312 105.766 14.2748C105.604 15.4098 105.6 16.5545 105.766 17.6895C105.962 19.0476 106.917 19.8625 108.293 19.8674C109.884 19.8674 111.475 19.8674 113.062 19.8674C114.222 19.8674 115.03 19.3387 115.466 18.2813C115.574 18.0242 115.691 17.9175 115.975 17.9223C117.048 17.9369 118.125 17.9417 119.197 17.9223C119.535 17.9175 119.628 18.0193 119.638 18.354C119.707 20.755 118.022 22.9813 115.735 23.6119C115.084 23.7914 114.457 23.8205 113.811 23.8253C112.758 23.8253 111.706 23.8253 110.648 23.8253H110.638Z" fill="#575657"/>
<path d="M185.933 8.22639C187.128 8.22639 188.318 8.24579 189.507 8.22639C193.258 8.14878 194.854 11.2143 194.781 13.591C194.771 13.9451 194.693 14.0663 194.316 14.0566C193.302 14.0324 192.289 14.0421 191.275 14.0566C190.991 14.0566 190.82 14.013 190.697 13.7025C190.266 12.616 189.419 12.1067 188.244 12.1164C186.692 12.1261 185.145 12.1164 183.592 12.1164C182.163 12.1164 181.217 12.8828 181.007 14.2846C180.826 15.4972 180.826 16.7195 181.041 17.9273C181.237 19.0429 182.207 19.8481 183.352 19.8626C185.061 19.882 186.77 19.8869 188.479 19.8626C189.556 19.8432 190.31 19.2806 190.707 18.2911C190.81 18.0291 190.923 17.9224 191.216 17.9273C192.269 17.9418 193.322 17.9418 194.375 17.9273C194.688 17.9224 194.766 18.0194 194.786 18.325C194.923 20.5708 193.322 23.2143 190.878 23.6411C190.335 23.7381 189.801 23.8303 189.253 23.8303C186.927 23.8303 184.601 23.8885 182.28 23.8157C179.695 23.7333 178.04 22.4382 177.344 20.1488C177.114 19.3921 176.987 18.6257 176.997 17.8303C177.021 16.4333 176.957 15.0316 177.016 13.6395C177.09 11.9321 177.648 10.3994 179.024 9.26439C179.866 8.57077 180.875 8.27974 181.942 8.24579C183.274 8.20214 184.606 8.23609 185.938 8.23609L185.933 8.22639Z" fill="#575657"/>
<path d="M81.0727 23.8254C79.5792 23.8254 78.1739 23.8254 76.7735 23.8254C76.5482 23.8254 76.5335 23.6557 76.465 23.5247C76.039 22.7244 75.6032 21.924 75.1968 21.114C75.0548 20.8327 74.8834 20.7211 74.5553 20.7211C71.2158 20.7308 67.8764 20.7308 64.5369 20.7211C64.2382 20.7211 64.0668 20.8133 63.9346 21.0801C63.5282 21.8901 63.0777 22.6807 62.6762 23.4907C62.5538 23.743 62.4167 23.8303 62.1425 23.8254C60.9281 23.8109 59.7187 23.8254 58.5043 23.8157C58.2987 23.8157 57.9755 23.937 58.2301 23.4665C60.8792 18.5287 63.5086 13.5861 66.1234 8.62898C66.3389 8.21669 66.5739 8.08088 67.0342 8.09058C68.7039 8.11969 70.3736 8.11969 72.0434 8.09058C72.5134 8.08088 72.773 8.21184 73.0031 8.64838C75.4906 13.3776 78.0074 18.097 80.5193 22.8165C80.676 23.1124 80.8425 23.3986 81.0776 23.8157L81.0727 23.8254ZM65.6876 17.8109C68.2044 17.8109 70.6234 17.8109 73.0472 17.8109C73.3508 17.8109 73.385 17.7139 73.2528 17.4616C72.3323 15.7397 71.4117 14.0178 70.5009 12.2911C70.3834 12.0679 70.2414 11.9709 69.9868 11.9855C69.6881 12 69.3894 12 69.0907 11.9855C68.8655 11.9758 68.7284 12.0582 68.6207 12.262C67.6658 14.076 66.7061 15.8852 65.6827 17.806L65.6876 17.8109Z" fill="#575657"/>
<path d="M213.985 16.084C213.985 18.5238 213.971 20.9684 213.995 23.4082C213.995 23.8641 213.863 23.966 213.427 23.9514C212.453 23.9175 211.478 23.9223 210.504 23.9514C210.127 23.9611 210.039 23.8399 210.044 23.4809C210.063 21.8269 210.039 20.1729 210.058 18.5189C210.063 18.0824 209.99 17.9078 209.485 17.9126C206.464 17.9369 203.443 17.932 200.417 17.9126C200.006 17.9126 199.873 18.0096 199.883 18.4316C199.908 20.105 199.883 21.7784 199.903 23.4518C199.908 23.8447 199.795 23.9563 199.403 23.9466C198.39 23.9223 197.376 23.9272 196.362 23.9466C196.049 23.9514 195.956 23.8593 195.956 23.5489C195.966 18.5286 195.966 13.5036 195.956 8.48337C195.956 8.15354 196.083 8.09534 196.372 8.10019C197.405 8.11474 198.439 8.11959 199.472 8.10019C199.829 8.09049 199.898 8.23115 199.893 8.54643C199.878 10.181 199.898 11.8156 199.878 13.4502C199.873 13.8819 199.947 14.0662 200.451 14.0614C203.472 14.0371 206.493 14.042 209.52 14.0614C209.931 14.0614 210.063 13.9547 210.058 13.5375C210.034 11.9029 210.058 10.2683 210.039 8.63374C210.034 8.2263 210.132 8.08564 210.563 8.10019C211.517 8.13414 212.472 8.13414 213.427 8.10019C213.863 8.08564 213.995 8.1875 213.995 8.64344C213.971 11.1269 213.985 13.6054 213.985 16.0889V16.084Z" fill="#575657"/>
<path d="M156.837 13.8819C156.837 15.4001 156.837 16.9135 156.837 18.4317C156.842 21.3807 155.163 22.8456 153.126 23.6022C152.293 23.9127 151.51 23.9369 150.687 23.9418C148.283 23.9563 145.879 23.9466 143.47 23.9466C141.398 23.9466 139.038 22.0695 138.598 20.0614C138.505 19.6394 138.456 19.2126 138.456 18.776C138.465 15.4098 138.47 12.0436 138.451 8.67742C138.451 8.21178 138.573 8.08082 139.038 8.10022C139.969 8.13902 140.909 8.13417 141.839 8.10022C142.265 8.08567 142.368 8.22633 142.368 8.62892C142.353 11.5246 142.358 14.4155 142.363 17.3112C142.363 18.8197 143.195 19.7995 144.709 19.9159C146.652 20.0663 148.601 20.0614 150.545 19.9159C152.009 19.8043 152.886 18.7663 152.886 17.3064C152.886 14.43 152.896 11.5586 152.876 8.68227C152.876 8.22148 152.994 8.08082 153.464 8.10022C154.438 8.13902 155.412 8.12932 156.387 8.10022C156.764 8.09052 156.852 8.21178 156.847 8.56586C156.828 10.3363 156.837 12.1115 156.837 13.8819Z" fill="#575657"/>
<path d="M166.895 8.10989C169.715 8.10989 172.541 8.12444 175.361 8.09534C175.846 8.09534 175.954 8.236 175.939 8.68709C175.905 9.56987 175.9 10.4575 175.939 11.3451C175.963 11.8447 175.851 12.0193 175.302 12.0048C173.353 11.966 171.409 12.0048 169.461 11.9805C169 11.9757 168.902 12.1164 168.902 12.548C168.917 16.1325 168.902 19.7122 168.922 23.2966C168.922 23.7865 168.849 23.9951 168.285 23.9611C167.375 23.9078 166.459 23.9223 165.543 23.9611C165.093 23.9805 164.975 23.8496 164.98 23.4082C165 19.8237 164.98 16.2441 165.005 12.6596C165.005 12.1018 164.838 11.9805 164.309 11.9902C162.302 12.0193 160.294 11.9902 158.287 12.0096C157.905 12.0096 157.768 11.9223 157.782 11.5198C157.812 10.5545 157.817 9.58927 157.782 8.62889C157.768 8.2069 157.9 8.10989 158.311 8.10989C161.171 8.12929 164.035 8.11959 166.895 8.11959V8.10989Z" fill="#575657"/>
<path d="M53.1328 8.10992C55.9532 8.10992 58.7736 8.11962 61.599 8.10022C62.0152 8.10022 62.1376 8.20208 62.1229 8.61922C62.0886 9.58446 62.0935 10.5497 62.1229 11.5101C62.1376 11.9127 61.9907 12 61.6137 11.9951C59.6452 11.9806 57.6768 12.0048 55.7133 11.9757C55.2285 11.9709 55.1257 12.1261 55.1257 12.5772C55.1404 16.1617 55.1257 19.7413 55.1453 23.3258C55.1453 23.806 55.0424 23.9806 54.5283 23.9563C53.6175 23.9127 52.697 23.9127 51.7862 23.9563C51.2917 23.9806 51.2084 23.8011 51.2133 23.3597C51.228 19.7752 51.2133 16.1956 51.2329 12.6111C51.2329 12.1358 51.1301 11.9709 50.6208 11.9806C48.6524 12.0097 46.6889 11.9806 44.7205 12.0048C44.2455 12.0097 44.0594 11.9175 44.0839 11.4034C44.128 10.5012 44.1231 9.59416 44.0839 8.68713C44.0643 8.23118 44.1867 8.09537 44.6666 8.10022C47.487 8.12447 50.3075 8.10992 53.1328 8.10992Z" fill="#575657"/>
<path d="M121.406 16.0162C121.406 13.5522 121.416 11.093 121.396 8.62895C121.396 8.23122 121.474 8.08085 121.91 8.0954C122.885 8.12936 123.859 8.12936 124.833 8.0954C125.259 8.08085 125.357 8.21666 125.357 8.6241C125.343 12.2086 125.357 15.7931 125.333 19.3775C125.333 19.9111 125.48 20.0226 125.994 20.0178C129.431 19.9935 132.874 20.0178 136.311 19.9935C136.815 19.9935 136.948 20.1245 136.928 20.6144C136.889 21.5602 136.903 22.5061 136.928 23.4519C136.938 23.8157 136.859 23.9564 136.448 23.9564C131.596 23.9418 126.748 23.9418 121.895 23.9564C121.504 23.9564 121.401 23.8448 121.401 23.4616C121.416 20.9782 121.411 18.4996 121.411 16.0162H121.406Z" fill="#575657"/>
<path d="M17.0302 19.363C16.947 19.1205 16.8735 18.9022 16.8001 18.6839C16.5553 17.9564 16.3202 17.2239 16.0656 16.4964C15.8355 15.8416 15.6298 15.1771 15.4095 14.5174C15.336 14.2943 15.2675 14.0663 15.194 13.8432C15.1842 13.8044 15.194 13.7898 15.2185 13.7656C15.669 13.4406 16.1195 13.1108 16.5699 12.7809C16.6189 12.747 16.6287 12.7567 16.6434 12.8052C16.7413 13.1059 16.8393 13.4066 16.9421 13.7025C17.3975 15.0121 17.8284 16.3266 18.2691 17.6411C18.6559 18.7858 19.0378 19.9256 19.4198 21.0703C19.5373 21.4244 19.6597 21.7737 19.7821 22.1277C19.9829 22.7195 20.1836 23.3161 20.3844 23.9079C20.3942 23.9321 20.3991 23.9564 20.404 23.9855C20.3648 23.9806 20.3452 23.9515 20.3207 23.937C19.8702 23.6023 19.4149 23.2627 18.9644 22.9232C17.4513 21.7979 15.9383 20.6775 14.4252 19.557C13.7544 19.0623 13.0836 18.5627 12.4176 18.0679C12.3638 18.0291 12.3295 18.0291 12.2756 18.0679C10.4394 19.4309 8.59832 20.7939 6.7621 22.1568C5.95906 22.7535 5.15113 23.3501 4.34809 23.9515C4.3285 23.9661 4.30402 23.9806 4.28443 24C4.27954 23.9709 4.29423 23.9467 4.29912 23.9273C4.81326 22.3994 5.3274 20.8666 5.84154 19.3387C6.38017 17.7381 6.9139 16.1326 7.45252 14.5319C7.64349 13.9547 7.84424 13.3824 8.03521 12.81C8.0548 12.747 8.06949 12.7373 8.12825 12.7809C8.56894 13.1108 9.01453 13.4357 9.46012 13.7607C9.51398 13.7995 9.52377 13.8286 9.50418 13.8917C9.40136 14.1827 9.29853 14.4737 9.2006 14.7648C8.93618 15.5408 8.68156 16.3218 8.41225 17.0978C8.16252 17.8205 7.92749 18.5481 7.67776 19.2708C7.66797 19.2999 7.64838 19.3242 7.66307 19.3678C7.82956 19.2417 7.99604 19.1205 8.16252 18.9944C9.0586 18.325 9.95467 17.6605 10.8556 16.9911C11.3306 16.637 11.8007 16.283 12.2708 15.9289C12.3197 15.8901 12.354 15.8852 12.4079 15.9289C13.916 17.0542 15.429 18.1746 16.9372 19.2999C16.9617 19.3145 16.9813 19.3339 17.0253 19.363H17.0302Z" fill="#BF1823"/>
<path d="M12.3438 0C12.5249 0.5481 12.7061 1.08165 12.8824 1.6152C13.6903 4.01617 14.4934 6.41229 15.3013 8.81326C15.3209 8.87632 15.3552 8.88117 15.409 8.88117C17.4803 8.88117 19.5515 8.88117 21.6228 8.88117C22.6168 8.88117 23.6108 8.88117 24.5999 8.87632C24.6684 8.87632 24.6929 8.89087 24.688 8.96362C24.6831 9.12854 24.6831 9.2983 24.688 9.46322C24.688 9.52628 24.6733 9.54568 24.6097 9.54568C23.7626 9.54568 22.9155 9.54568 22.0684 9.54568C19.9188 9.54568 17.7643 9.54568 15.6147 9.54568C15.3943 9.54568 15.174 9.54568 14.9536 9.55053C14.8851 9.55053 14.8557 9.53113 14.8361 9.46807C14.5227 8.51738 14.2045 7.5667 13.8862 6.61601C13.3769 5.09297 12.8677 3.56993 12.3585 2.04689C12.3585 2.04689 12.3585 2.03719 12.3487 2.02749C12.3046 2.09539 12.2948 2.16815 12.2703 2.23606C11.5309 4.43331 10.7964 6.63056 10.0571 8.82781C9.98362 9.04123 9.91017 9.25465 9.84162 9.47292C9.82203 9.53113 9.79755 9.55053 9.73389 9.55053C8.67623 9.55053 7.61857 9.55053 6.56091 9.54568C5.24863 9.54568 3.93635 9.54568 2.62406 9.54568C1.8553 9.54568 1.09143 9.54568 0.322672 9.54568C0.234534 9.54568 0.146395 9.54568 0.0582569 9.54568C0.0190843 9.54568 0.00439453 9.53598 0.00439453 9.49232C0.00439453 9.30315 0.00439453 9.11399 0.00439453 8.92967C0.00439453 8.86661 0.0435671 8.88117 0.0778432 8.88117C0.601777 8.88117 1.12571 8.88117 1.65454 8.88117C4.19586 8.88117 6.73229 8.88117 9.27361 8.88117C9.34216 8.88117 9.36665 8.86176 9.39113 8.79871C10.0718 6.77607 10.7524 4.75344 11.433 2.72595C11.7268 1.84802 12.0255 0.965239 12.3193 0.087308C12.3291 0.0630558 12.3389 0.0388036 12.3536 0L12.3438 0Z" fill="#BF1823"/>
<path d="M12.3494 3.37585C12.462 3.71539 12.5795 4.05007 12.6873 4.38475C12.7999 4.73883 12.9223 5.08806 13.0398 5.44214C13.4266 6.59655 13.8086 7.75096 14.1954 8.90536C14.3031 9.23034 14.4158 9.55047 14.5186 9.87545C14.5333 9.92396 14.5578 9.94336 14.6116 9.94336C16.8396 9.94336 19.0724 9.94336 21.3003 9.94336C22.407 9.94336 23.5136 9.94336 24.6202 9.94336C24.6741 9.94336 24.6888 9.95791 24.6888 10.0113C24.6888 10.1907 24.6888 10.3653 24.6888 10.5448C24.6888 10.5933 24.6741 10.6079 24.6251 10.6079C23.9151 10.6079 23.2002 10.6079 22.4902 10.6079C22.4217 10.6079 22.3531 10.6079 22.2894 10.6079C20.1839 10.6079 18.0784 10.6079 15.9729 10.6079C15.3706 10.6079 14.7732 10.6079 14.1709 10.6079C14.1073 10.6079 14.0828 10.5933 14.0632 10.5303C13.505 8.85686 12.9419 7.1883 12.3788 5.51975C12.369 5.49065 12.3543 5.46155 12.3396 5.40819C12.2808 5.58766 12.2221 5.74772 12.1682 5.91264C11.845 6.86817 11.5219 7.82856 11.2036 8.78895C11.0126 9.371 10.8168 9.94821 10.6258 10.5303C10.6062 10.5933 10.5768 10.6127 10.5132 10.6127C8.50069 10.6127 6.4833 10.6127 4.47081 10.6127C3.81466 10.6127 3.15852 10.6127 2.50728 10.6127C1.69934 10.6127 0.891407 10.6127 0.0834722 10.6127C0.0149201 10.6127 0.00512695 10.5933 0.00512695 10.5303C0.00512695 10.3653 0.00512695 10.1956 0.00512695 10.0307C0.00512695 9.96761 0.0198167 9.94821 0.0834722 9.94821C1.44962 9.94821 2.81087 9.94821 4.17701 9.94821C5.7635 9.94821 7.35489 9.94821 8.94138 9.94821C9.31842 9.94821 9.69545 9.94821 10.0725 9.94821C10.1361 9.94821 10.1557 9.92881 10.1753 9.8706C10.7776 8.06623 11.3799 6.25702 11.9822 4.45265C12.0948 4.12282 12.2025 3.78814 12.3151 3.45831C12.3249 3.43406 12.3249 3.40496 12.3543 3.37585H12.3494Z" fill="#BF1823"/>
</g>
<defs>
<clipPath id="clip0_902_10589">
<rect width="214" height="24" fill="white"/>
</clipPath>
</defs>
</svg>
