<svg width="24" height="24" viewBox="0 0 24 24" fill="none" xmlns="http://www.w3.org/2000/svg">
<path d="M16.5531 19.363C16.4722 19.1205 16.4008 18.9022 16.3293 18.6839C16.0913 17.9564 15.8628 17.2239 15.6152 16.4964C15.3915 15.8416 15.1915 15.1771 14.9773 14.5174C14.9059 14.2943 14.8392 14.0663 14.7678 13.8432C14.7583 13.8044 14.7678 13.7898 14.7916 13.7656C15.2296 13.4406 15.6676 13.1108 16.1056 12.7809C16.1532 12.747 16.1627 12.7567 16.177 12.8052C16.2722 13.1059 16.3674 13.4066 16.4674 13.7025C16.9102 15.0121 17.3291 16.3266 17.7576 17.6411C18.1337 18.7858 18.5051 19.9256 18.8764 21.0703C18.9907 21.4244 19.1097 21.7737 19.2287 22.1277C19.4239 22.7195 19.6191 23.3161 19.8143 23.9079C19.8238 23.9321 19.8286 23.9564 19.8333 23.9855C19.7952 23.9806 19.7762 23.9515 19.7524 23.937C19.3144 23.6023 18.8716 23.2627 18.4336 22.9232C16.9625 21.7979 15.4914 20.6775 14.0203 19.557C13.3681 19.0623 12.7159 18.5627 12.0684 18.0679C12.016 18.0291 11.9827 18.0291 11.9303 18.0679C10.145 19.4309 8.35493 20.7939 6.56961 22.1568C5.78884 22.7535 5.0033 23.3501 4.22252 23.9515C4.20347 23.9661 4.17967 23.9806 4.16063 24C4.15587 23.9709 4.17015 23.9467 4.17491 23.9273C4.6748 22.3994 5.17469 20.8666 5.67457 19.3387C6.19827 17.7381 6.7172 16.1326 7.24089 14.5319C7.42657 13.9547 7.62176 13.3824 7.80743 12.81C7.82648 12.747 7.84076 12.7373 7.89789 12.7809C8.32637 13.1108 8.7596 13.4357 9.19284 13.7607C9.24521 13.7995 9.25473 13.8286 9.23569 13.8917C9.13571 14.1827 9.03573 14.4737 8.94051 14.7648C8.68343 15.5408 8.43586 16.3218 8.17402 17.0978C7.93122 17.8206 7.70269 18.5481 7.45989 19.2708C7.45037 19.2999 7.43133 19.3242 7.44561 19.3678C7.60748 19.2417 7.76935 19.1205 7.93122 18.9944C8.80245 18.325 9.67368 17.6605 10.5497 16.9911C11.0115 16.637 11.4685 16.283 11.9256 15.9289C11.9732 15.8901 12.0065 15.8852 12.0589 15.9289C13.5252 17.0542 14.9963 18.1746 16.4626 19.2999C16.4865 19.3145 16.5055 19.3339 16.5483 19.363H16.5531Z" fill="#BF1823"/>
<path d="M11.9973 0C12.1735 0.5481 12.3496 1.08165 12.521 1.6152C13.3066 4.01617 14.0873 6.41229 14.8729 8.81326C14.8919 8.87631 14.9252 8.88116 14.9776 8.88116C16.9915 8.88116 19.0053 8.88116 21.0191 8.88116C21.9856 8.88116 22.952 8.88116 23.9137 8.87631C23.9804 8.87631 24.0042 8.89087 23.9994 8.96362C23.9947 9.12854 23.9947 9.2983 23.9994 9.46322C23.9994 9.52627 23.9851 9.54568 23.9232 9.54568C23.0996 9.54568 22.276 9.54568 21.4524 9.54568C19.3624 9.54568 17.2676 9.54568 15.1776 9.54568C14.9633 9.54568 14.7491 9.54568 14.5349 9.55053C14.4682 9.55053 14.4396 9.53112 14.4206 9.46807C14.1159 8.51738 13.8064 7.56669 13.497 6.61601C13.0019 5.09297 12.5067 3.56993 12.0116 2.04689C12.0116 2.04689 12.0116 2.03719 12.0021 2.02749C11.9592 2.09539 11.9497 2.16815 11.9259 2.23606C11.207 4.43331 10.4929 6.63056 9.77401 8.82781C9.7026 9.04123 9.63119 9.25465 9.56454 9.47292C9.54549 9.53112 9.52169 9.55053 9.4598 9.55053C8.43145 9.55053 7.40311 9.55053 6.37477 9.54568C5.09886 9.54568 3.82296 9.54568 2.54705 9.54568C1.7996 9.54568 1.05691 9.54568 0.309455 9.54568C0.22376 9.54568 0.138064 9.54568 0.0523693 9.54568C0.0142825 9.54568 0 9.53597 0 9.49232C0 9.30315 0 9.11399 0 8.92967C0 8.86661 0.0380867 8.88116 0.0714127 8.88116C0.580823 8.88116 1.09023 8.88116 1.6044 8.88116C4.07528 8.88116 6.5414 8.88116 9.01228 8.88116C9.07893 8.88116 9.10273 8.86176 9.12654 8.79871C9.78829 6.77607 10.4501 4.75344 11.1118 2.72595C11.3975 1.84802 11.6879 0.965239 11.9735 0.087308C11.983 0.0630558 11.9926 0.0388036 12.0068 0L11.9973 0Z" fill="#BF1823"/>
<path d="M12.0021 3.37598C12.1116 3.71551 12.2258 4.05019 12.3306 4.38487C12.4401 4.73895 12.5591 5.08818 12.6734 5.44227C13.0495 6.59667 13.4208 7.75108 13.7969 8.90548C13.9017 9.23046 14.0112 9.55059 14.1111 9.87557C14.1254 9.92408 14.1492 9.94348 14.2016 9.94348C16.3678 9.94348 18.5387 9.94348 20.7049 9.94348C21.7809 9.94348 22.8568 9.94348 23.9328 9.94348C23.9851 9.94348 23.9994 9.95803 23.9994 10.0114C23.9994 10.1909 23.9994 10.3655 23.9994 10.5449C23.9994 10.5934 23.9851 10.608 23.9375 10.608C23.2472 10.608 22.5521 10.608 21.8618 10.608C21.7951 10.608 21.7285 10.608 21.6666 10.608C19.6194 10.608 17.5723 10.608 15.5251 10.608C14.9395 10.608 14.3587 10.608 13.7731 10.608C13.7112 10.608 13.6874 10.5934 13.6684 10.5304C13.1256 8.85698 12.5782 7.18843 12.0307 5.51987C12.0211 5.49077 12.0068 5.46167 11.9926 5.40831C11.9354 5.58778 11.8783 5.74784 11.8259 5.91276C11.5117 6.8683 11.1975 7.82868 10.8881 8.78907C10.7024 9.37113 10.5119 9.94833 10.3263 10.5304C10.3072 10.5934 10.2787 10.6128 10.2168 10.6128C8.26006 10.6128 6.2986 10.6128 4.34189 10.6128C3.70394 10.6128 3.06598 10.6128 2.43279 10.6128C1.64725 10.6128 0.861713 10.6128 0.0761735 10.6128C0.00952169 10.6128 0 10.5934 0 10.5304C0 10.3655 0 10.1957 0 10.0308C0 9.96773 0.0142825 9.94833 0.0761735 9.94833C1.40445 9.94833 2.72796 9.94833 4.05624 9.94833C5.59875 9.94833 7.14603 9.94833 8.68854 9.94833C9.05513 9.94833 9.42171 9.94833 9.7883 9.94833C9.85019 9.94833 9.86923 9.92893 9.88827 9.87072C10.4739 8.06636 11.0594 6.25714 11.645 4.45278C11.7545 4.12295 11.8593 3.78826 11.9688 3.45843C11.9783 3.43418 11.9783 3.40508 12.0068 3.37598H12.0021Z" fill="#BF1823"/>
</svg>
