<svg width="24" height="24" viewBox="0 0 24 24" fill="none" xmlns="http://www.w3.org/2000/svg">
<path d="M22.8 9.6H21.24C21 8.76 20.64 7.92 20.16 7.08L21.24 6C21.72 5.52 21.72 4.8 21.24 4.32L19.56 2.64C19.08 2.16 18.36 2.16 17.88 2.64L16.8 3.72C16.08 3.24 15.24 2.88 14.28 2.64V1.2C14.28 0.48 13.8 0 13.08 0H10.68C9.96 0 9.48 0.48 9.48 1.2V2.76C8.76 3 7.92 3.24 7.08 3.72L6.12 2.64C5.64 2.16 4.92 2.16 4.44 2.64L2.64 4.32C2.16 4.8 2.16 5.52 2.64 6L3.72 7.08C3.24 7.92 3 8.76 2.76 9.6H1.2C0.48 9.6 0 10.08 0 10.8V13.2C0 13.92 0.48 14.4 1.2 14.4H2.76C3 15.24 3.36 16.08 3.84 16.92L2.76 18C2.28 18.48 2.28 19.2 2.76 19.68L4.44 21.36C4.92 21.84 5.64 21.84 6.12 21.36L7.2 20.28C7.92 20.76 8.76 21.12 9.72 21.36V22.8C9.72 23.52 10.2 24 10.92 24H13.32C14.04 24 14.52 23.52 14.52 22.8V21.24C15.36 21 16.2 20.64 17.04 20.16L18.12 21.24C18.6 21.72 19.32 21.72 19.8 21.24L21.48 19.56C21.96 19.08 21.96 18.36 21.48 17.88L20.4 16.8C20.88 16.08 21.24 15.24 21.48 14.28H22.8C23.52 14.28 24 13.8 24 13.08V10.68C24 10.08 23.52 9.6 22.8 9.6ZM12 18C8.64 18 6 15.36 6 12C6 8.64 8.64 6 12 6C15.36 6 18 8.64 18 12C18 15.36 15.36 18 12 18Z" fill="white"/>
</svg>
