<svg width="24" height="24" viewBox="0 0 24 24" fill="none" xmlns="http://www.w3.org/2000/svg">
<g clip-path="url(#clip0_114_974)">
<path d="M2.49844 0.764069H21.5062C22.8844 0.764069 24.0047 1.87969 24.0047 3.26251C24.0047 4.64063 22.8891 5.76094 21.5062 5.76094H2.49844C1.11562 5.75626 0 4.64063 0 3.26251C0 1.88438 1.11562 0.764069 2.49844 0.764069Z" fill="#BF1823"/>
<path d="M2.49844 9.50157H21.5062C22.8844 9.50157 24.0047 10.6172 24.0047 12C24.0047 13.3781 22.8891 14.4984 21.5062 14.4984H2.49844C1.11562 14.4984 0 13.3781 0 12C0 10.6219 1.11562 9.50157 2.49844 9.50157Z" fill="#BF1823"/>
<path d="M2.49844 18.2438H21.5062C22.8844 18.2438 24.0047 19.3594 24.0047 20.7422C24.0047 22.1203 22.8891 23.2406 21.5062 23.2406H2.49844C1.11562 23.2359 0 22.1156 0 20.7375C0 19.3594 1.11562 18.2438 2.49844 18.2438Z" fill="#BF1823"/>
</g>
<defs>
<clipPath id="clip0_114_974">
<rect width="24" height="24" fill="white"/>
</clipPath>
</defs>
</svg>
