<svg width="24" height="24" viewBox="0 0 24 24" fill="none" xmlns="http://www.w3.org/2000/svg">
<path d="M23.4832 10.4038C22.5452 9.08924 21.427 7.91577 20.1619 6.91856L23.2447 3.80769C25.2587 1.77537 22.1318 -1.37117 20.1178 0.652241L16.1251 4.68123C10.1759 2.61414 4.06773 5.44602 0.516756 10.4038C0.180991 10.8668 0 11.4256 0 11.9994C0 12.5731 0.180991 13.1319 0.516756 13.5949C1.45474 14.9095 2.57302 16.083 3.83806 17.0802L0.755254 20.191C0.340591 20.6095 0.107636 21.177 0.107636 21.7688C0.107636 22.3605 0.340591 22.928 0.755254 23.3465C1.16992 23.7649 1.73232 24 2.31874 24C2.90516 24 3.46757 23.7649 3.88223 23.3465L7.87487 19.3175C13.7213 21.206 18.9241 19.2985 23.4832 13.5949C23.819 13.1319 24 12.5731 24 11.9994C24 11.4256 23.819 10.8668 23.4832 10.4038ZM12 7.54252C12.3897 7.53937 12.7783 7.58427 13.1572 7.67623L11.4788 9.36983C10.9557 9.44762 10.4714 9.69336 10.0975 10.0706C9.72364 10.4479 9.48012 10.9367 9.40302 11.4645L7.76003 13.1225C7.17704 10.591 8.59036 7.54252 12 7.54252ZM2.62791 22.0807C2.58994 22.1318 2.54154 22.1741 2.48598 22.2046C2.43042 22.2352 2.369 22.2534 2.30588 22.2579C2.24277 22.2624 2.17942 22.2532 2.12014 22.2309C2.06085 22.2086 2.00702 22.1736 1.96227 22.1285C1.91753 22.0833 1.88292 22.029 1.86079 21.9692C1.83867 21.9094 1.82954 21.8454 1.83402 21.7817C1.83851 21.718 1.85651 21.6561 1.88679 21.6C1.91708 21.5439 1.95896 21.4951 2.00958 21.4568L21.3721 1.91798C21.7784 1.49904 22.3879 2.14974 21.9904 2.54194L2.62791 22.0807ZM12 16.4562C11.6103 16.4594 11.2217 16.4145 10.8428 16.3225L12.5212 14.6289C13.0443 14.5511 13.5286 14.3054 13.9025 13.9281C14.2764 13.5508 14.5199 13.062 14.597 12.5342L16.2665 10.8495C16.9025 13.3899 15.5333 16.4562 12 16.4562Z" fill="#575657"/>
</svg>
