<svg width="16" height="16" viewBox="0 0 16 16" fill="none" xmlns="http://www.w3.org/2000/svg">
<path d="M7.43115 3.52109C10.0441 3.33901 12.3741 4.54026 14.0303 6.49109C15.2032 7.87276 14.9632 8.50026 13.8132 9.76609C10.3945 13.5286 5.23699 13.3644 1.96949 9.51484C0.807404 8.14567 1.0274 7.51776 2.17157 6.25609C3.50074 4.79026 5.41824 3.66151 7.43115 3.52109ZM7.8374 5.51692C4.66032 5.70276 4.79449 10.5669 8.07949 10.499C11.4462 10.4294 11.1991 5.32026 7.8374 5.51692Z" fill="#575657"/>
<path d="M7.74332 6.5145C10.0721 6.23533 10.0992 9.71242 7.79749 9.4995C6.08124 9.34075 6.06374 6.71575 7.74332 6.5145Z" fill="#575657"/>
</svg>
