<svg width="24" height="24" viewBox="0 0 24 24" fill="none" xmlns="http://www.w3.org/2000/svg">
<g clip-path="url(#clip0_156_452)">
<path d="M23.8891 20.6019L20.5998 15.0989C20.4587 14.8625 20.2034 14.7178 19.9283 14.7178H18.0386L17.3858 14.065C17.1365 14.0538 16.8877 14.0351 16.6411 14.0004L13.6606 16.9803L14.7183 18.0381V19.9273C14.7183 20.2025 14.8629 20.4578 15.0994 20.5989L20.6029 23.8887C20.9098 24.0729 21.3036 24.0246 21.5577 23.7705L23.7709 21.5567C24.0246 21.303 24.0735 20.9097 23.8891 20.6019Z" fill="#575657"/>
<path d="M23.6383 4.15668C23.447 3.62057 22.7573 3.4567 22.3478 3.86629L19.1467 7.0679L17.3018 6.69904L16.933 4.85418L20.1341 1.65309C20.5391 1.24912 20.3853 0.555886 19.8437 0.362574C17.5763 -0.445082 15.0156 0.131152 13.317 1.82981C11.7371 3.40921 11.1282 5.73454 11.6993 7.87439L4.95323 14.6211C2.52745 14.3937 0.000976562 16.4501 0.000976562 19.3043C0.000976562 21.8936 2.10721 23.9998 4.69645 23.9998C7.54434 23.9998 9.60763 21.479 9.37968 19.0476L16.1263 12.3014C18.2662 12.8735 20.591 12.2637 22.1704 10.6843C23.8696 8.98514 24.4458 6.42286 23.6383 4.15668ZM4.69645 20.8694C3.83338 20.8694 3.13129 20.1674 3.13129 19.3043C3.13129 18.4412 3.83338 17.7391 4.69645 17.7391C5.55951 17.7391 6.2616 18.4412 6.2616 19.3043C6.2616 20.1674 5.55956 20.8694 4.69645 20.8694Z" fill="#575657"/>
<path d="M10.1108 4.57692L6.22022 0.686386C5.30372 -0.230114 3.81309 -0.227395 2.90039 0.686386L0.686672 2.89959C-0.228891 3.81515 -0.228891 5.30437 0.686672 6.21998L5.91361 11.4469L8.12691 9.23329L3.36047 4.46676C3.0548 4.16109 3.0548 3.66581 3.36047 3.36014C3.66614 3.05446 4.16142 3.05446 4.46709 3.36014L9.23344 8.12653L10.0002 7.35965C9.86803 6.42525 9.91172 5.48315 10.1108 4.57692Z" fill="#575657"/>
</g>
<defs>
<clipPath id="clip0_156_452">
<rect width="24" height="24" fill="white"/>
</clipPath>
</defs>
</svg>
