<svg width="24" height="24" viewBox="0 0 24 24" fill="none" xmlns="http://www.w3.org/2000/svg">
<g clip-path="url(#clip0_939_11301)">
<path d="M23.4001 12C23.4001 13.5742 22.1239 14.8504 20.5497 14.8504H14.8542V20.5495C14.8542 22.1238 13.5781 23.4 12.0038 23.4H12.0001C10.4258 23.4 9.14966 22.1238 9.14966 20.5495V14.8504H3.45054C1.87628 14.8504 0.600098 13.5742 0.600098 12C0.600098 10.4257 1.87628 9.14953 3.45054 9.14953H9.14966V3.45041C9.14966 1.87616 10.4258 0.599976 12.0001 0.599976C13.5743 0.599976 14.8505 1.87616 14.8505 3.45041V9.14953H20.5497C22.1239 9.14953 23.4001 10.4257 23.4001 12Z" fill="white"/>
</g>
<defs>
<clipPath id="clip0_939_11301">
<rect width="24" height="24" fill="white"/>
</clipPath>
</defs>
</svg>
