<svg width="64" height="64" viewBox="0 0 64 64" fill="none" xmlns="http://www.w3.org/2000/svg">
<g clip-path="url(#clip0_458_6453)">
<path d="M59.733 14.9334V46.9334C59.733 49.28 57.813 51.2 55.4664 51.2H49.0664C49.0664 41.792 41.4076 34.1334 31.9998 34.1334C22.592 34.1334 14.9332 41.7922 14.9332 51.2H8.5332C6.1866 51.2 4.2666 49.28 4.2666 46.9334V4.2666C4.2662 1.92 6.1864 0 8.533 0H22.2716C24.2342 0 25.9408 1.3226 26.4102 3.2214L27.4556 7.4454C27.925 9.344 29.6316 10.6668 31.5942 10.6668H55.4662C57.8128 10.6668 59.733 12.5868 59.733 14.9334Z" fill="#575657"/>
<path d="M55.4661 6.40002L31.5941 6.42142L30.5487 2.19742C30.5487 2.17602 30.5273 2.15462 30.5273 2.13342H51.1993C53.5459 2.13342 55.4661 4.05342 55.4661 6.40002Z" fill="#575657"/>
<path d="M32.0002 38.4C24.9388 38.4 19.2002 44.1386 19.2002 51.2C19.2002 58.2614 24.9388 64 32.0002 64C39.0616 64 44.8002 58.2614 44.8002 51.2C44.8002 44.1386 39.0616 38.4 32.0002 38.4ZM37.7816 50.5814C37.355 50.9868 36.8216 51.2 36.2668 51.2C35.712 51.2 35.1788 50.9868 34.752 50.5814L34.1334 49.9626V57.6C34.1334 58.7734 33.1734 59.7334 32 59.7334C30.8266 59.7334 29.8666 58.7734 29.8666 57.6V49.9626L29.248 50.5814C28.416 51.4134 27.0506 51.4134 26.2186 50.5814C25.3866 49.7494 25.3866 48.384 26.2186 47.552L30.4852 43.2854C31.3172 42.4534 32.6826 42.4534 33.5146 43.2854L37.7812 47.552C38.6132 48.384 38.6136 49.7494 37.7816 50.5814Z" fill="#575657"/>
</g>
<defs>
<clipPath id="clip0_458_6453">
<rect width="64" height="64" fill="white"/>
</clipPath>
</defs>
</svg>
