<svg width="24" height="24" viewBox="0 0 24 24" fill="none" xmlns="http://www.w3.org/2000/svg">
<path d="M11.9999 6.95C13.8499 6.95 15.3499 5.45 15.3499 3.6C15.3499 1.75 13.8499 0.25 11.9999 0.25C10.1499 0.25 8.6499 1.75 8.6499 3.6C8.6499 5.45 10.1499 6.95 11.9999 6.95Z" fill="#575657"/>
<path d="M11.9999 8.6499C10.1499 8.6499 8.6499 10.1499 8.6499 11.9999C8.6499 13.8499 10.1499 15.3499 11.9999 15.3499C13.8499 15.3499 15.3499 13.8499 15.3499 11.9999C15.3499 10.1499 13.8499 8.6499 11.9999 8.6499Z" fill="#575657"/>
<path d="M11.9999 17.0498C10.1499 17.0498 8.6499 18.5498 8.6499 20.3998C8.6499 22.2498 10.1499 23.7498 11.9999 23.7498C13.8499 23.7498 15.3499 22.2498 15.3499 20.3998C15.3499 18.5498 13.8499 17.0498 11.9999 17.0498Z" fill="#575657"/>
</svg>
